<svg version="1.2" xmlns="http://www.w3.org/2000/svg" viewBox="0 0 1040 829" width="1040" height="829">
	<title>758-ai</title>
	<defs>
		<radialGradient id="g1" cx="0" cy="0" r="1" gradientUnits="userSpaceOnUse" gradientTransform="matrix(1.998,0,0,1.998,1199.648,304.935)">
			<stop offset="0" stop-color="#fd9e84"/>
			<stop offset="1" stop-color="#ff6138"/>
		</radialGradient>
		<linearGradient id="g2" x2="1" gradientUnits="userSpaceOnUse" gradientTransform="matrix(-103.03,63.333,-40.017,-65.099,366.647,413.955)">
			<stop offset="0" stop-color="#fd9e84"/>
			<stop offset="1" stop-color="#ff6138"/>
		</linearGradient>
		<linearGradient id="g3" x2="1" gradientUnits="userSpaceOnUse" gradientTransform="matrix(115.895,-34.564,21.839,73.228,436.168,382.867)">
			<stop offset="0" stop-color="#42e8e0"/>
			<stop offset="1" stop-color="#5761d7"/>
		</linearGradient>
		<linearGradient id="g4" x2="1" gradientUnits="userSpaceOnUse" gradientTransform="matrix(104.267,-16.275,10.284,65.881,415.74,294.189)">
			<stop offset="0" stop-color="#fd9e84"/>
			<stop offset="1" stop-color="#ff6138"/>
		</linearGradient>
		<linearGradient id="g5" x2="1" gradientUnits="userSpaceOnUse" gradientTransform="matrix(95.95,-5.805,3.668,60.626,405.413,220.819)">
			<stop offset="0" stop-color="#fd9e84"/>
			<stop offset="1" stop-color="#ff6138"/>
		</linearGradient>
		<linearGradient id="g6" x2="1" gradientUnits="userSpaceOnUse" gradientTransform="matrix(80.546,-10.262,6.484,50.893,395.561,158.884)">
			<stop offset="0" stop-color="#fd9e84"/>
			<stop offset="1" stop-color="#ff6138"/>
		</linearGradient>
		<linearGradient id="g7" x2="1" gradientUnits="userSpaceOnUse" gradientTransform="matrix(77.867,-23.017,14.543,49.2,379.648,99.789)">
			<stop offset="0" stop-color="#fd9e84"/>
			<stop offset="1" stop-color="#ff6138"/>
		</linearGradient>
		<linearGradient id="g8" x2="1" gradientUnits="userSpaceOnUse" gradientTransform="matrix(-95.083,54.239,-34.271,-60.078,338.099,324.95)">
			<stop offset="0" stop-color="#fd9e84"/>
			<stop offset="1" stop-color="#ff6138"/>
		</linearGradient>
		<linearGradient id="g9" x2="1" gradientUnits="userSpaceOnUse" gradientTransform="matrix(-87.283,33.724,-21.308,-55.15,322.982,245.441)">
			<stop offset="0" stop-color="#fd9e84"/>
			<stop offset="1" stop-color="#ff6138"/>
		</linearGradient>
		<linearGradient id="g10" x2="1" gradientUnits="userSpaceOnUse" gradientTransform="matrix(-80.431,18.025,-11.389,-50.82,323.311,174.98)">
			<stop offset="0" stop-color="#fd9e84"/>
			<stop offset="1" stop-color="#ff6138"/>
		</linearGradient>
		<linearGradient id="g11" x2="1" gradientUnits="userSpaceOnUse" gradientTransform="matrix(-76.752,-6.953,4.393,-48.496,335.7,109.144)">
			<stop offset="0" stop-color="#fd9e84"/>
			<stop offset="1" stop-color="#ff6138"/>
		</linearGradient>
		<linearGradient id="g12" x2="1" gradientUnits="userSpaceOnUse" gradientTransform="matrix(-14.703,-64.452,40.724,-9.29,407.014,85.723)">
			<stop offset="0" stop-color="#fd9e84"/>
			<stop offset="1" stop-color="#fd9e84"/>
		</linearGradient>
		<linearGradient id="g13" x2="1" gradientUnits="userSpaceOnUse" gradientTransform="matrix(-304.883,-88.99,126.319,-432.772,614.155,103.514)">
			<stop offset="0" stop-color="#fd9e84"/>
			<stop offset="1" stop-color="#ff6138"/>
		</linearGradient>
		<linearGradient id="g14" x2="1" gradientUnits="userSpaceOnUse" gradientTransform="matrix(119.185,14.813,-49.095,395.017,610.207,172.641)">
			<stop offset="0" stop-color="#fd9e84"/>
			<stop offset="1" stop-color="#ff6138"/>
		</linearGradient>
		<linearGradient id="g15" x2="1" gradientUnits="userSpaceOnUse" gradientTransform="matrix(113.48,14.104,-48.817,392.785,614.516,174.057)">
			<stop offset="0" stop-color="#fd9e84"/>
			<stop offset="1" stop-color="#ff6138"/>
		</linearGradient>
		<linearGradient id="g16" x2="1" gradientUnits="userSpaceOnUse" gradientTransform="matrix(150.631,38.645,-128.083,499.236,754.919,132.885)">
			<stop offset="0" stop-color="#fd9e84"/>
			<stop offset="1" stop-color="#ff6138"/>
		</linearGradient>
		<linearGradient id="g17" x2="1" gradientUnits="userSpaceOnUse" gradientTransform="matrix(143.42,36.795,-127.359,496.414,760.22,135.414)">
			<stop offset="0" stop-color="#fd9e84"/>
			<stop offset="1" stop-color="#ff6138"/>
		</linearGradient>
		<linearGradient id="g18" x2="1" gradientUnits="userSpaceOnUse" gradientTransform="matrix(-896.225,-658.716,493.664,-671.661,1222.839,1331.143)">
			<stop offset="0" stop-color="#5761d7"/>
			<stop offset="1" stop-color="#bcbeff"/>
		</linearGradient>
		<linearGradient id="g19" x2="1" gradientUnits="userSpaceOnUse" gradientTransform="matrix(938.555,0,0,541.875,-226.847,381.207)">
			<stop offset="0" stop-color="#c0bff6"/>
			<stop offset="1" stop-color="#e9e9fd"/>
		</linearGradient>
		<linearGradient id="g20" x2="1" gradientUnits="userSpaceOnUse" gradientTransform="matrix(970.294,-438.994,782.362,1729.226,-342.824,468.112)">
			<stop offset="0" stop-color="#c0bff6"/>
			<stop offset="1" stop-color="#e9e9fd"/>
		</linearGradient>
		<linearGradient id="g21" x2="1" gradientUnits="userSpaceOnUse" gradientTransform="matrix(.015,-22.365,47.195,.032,746.154,334.722)">
			<stop offset="0" stop-color="#c0bff6"/>
			<stop offset="1" stop-color="#e9e9fd"/>
		</linearGradient>
		<linearGradient id="g22" x2="1" gradientUnits="userSpaceOnUse" gradientTransform="matrix(.16,-238.407,167.317,.113,678.385,510.172)">
			<stop offset="0" stop-color="#c0bff6"/>
			<stop offset="1" stop-color="#e9e9fd"/>
		</linearGradient>
		<linearGradient id="g23" x2="1" gradientUnits="userSpaceOnUse" gradientTransform="matrix(229.64,132.583,-80.362,139.191,526.853,245.367)">
			<stop offset="0" stop-color="#38150b"/>
			<stop offset=".5" stop-color="#fd9e84"/>
			<stop offset="1" stop-color="#38150b"/>
		</linearGradient>
	</defs>
	<style>
		.s0 { opacity: .5;fill: url(#g1) } 
		.s1 { opacity: .4;fill: #b75339 } 
		.s2 { fill: url(#g2) } 
		.s3 { fill: url(#g3) } 
		.s4 { fill: url(#g4) } 
		.s5 { fill: url(#g5) } 
		.s6 { fill: url(#g6) } 
		.s7 { fill: url(#g7) } 
		.s8 { fill: url(#g8) } 
		.s9 { fill: url(#g9) } 
		.s10 { fill: url(#g10) } 
		.s11 { fill: url(#g11) } 
		.s12 { fill: url(#g12) } 
		.s13 { opacity: .7;fill: url(#g13) } 
		.s14 { opacity: .7;fill: url(#g14) } 
		.s15 { opacity: .7;fill: url(#g15) } 
		.s16 { opacity: .4;fill: #0b0244 } 
		.s17 { opacity: .7;fill: url(#g16) } 
		.s18 { opacity: .7;fill: url(#g17) } 
		.s19 { fill: #808080 } 
		.s20 { fill: url(#g18) } 
		.s21 { fill: url(#g19) } 
		.s22 { opacity: .1;fill: #180d5b } 
		.s23 { fill: #ffffff } 
		.s24 { fill: url(#g20) } 
		.s25 { fill: url(#g21) } 
		.s26 { fill: url(#g22) } 
		.s27 { fill: #ff6138 } 
		.s28 { fill: url(#g23) } 
		.s29 { fill: #fcd1c5 } 
		.s30 { fill: #160a5b } 
		.s31 { fill: #e2b1a6 } 
		.s32 { fill: #4846a5 } 
		.s33 { fill: #24126a } 
		.s34 { fill: #453c9e } 
		.s35 { fill: #aa8383 } 
		.s36 { fill: #936d6d } 
		.s37 { fill: #f0f6ff } 
		.s38 { fill: #c4ccd6 } 
		.s39 { opacity: .4;fill: #38150b } 
		.s40 { opacity: .6;fill: #38150b } 
		.s41 { opacity: .8;fill: #38150b } 
		.s42 { fill: #38150b } 
	</style>
	<g id="321353356351 1">
		<path id="&lt;Path&gt;" class="s0" d="m201 737.2c176.4 101.8 462.3 101.8 638.7 0 176.4-101.8 176.4-266.9 0-368.7-176.4-101.9-462.3-101.9-638.7 0-176.3 101.8-176.3 266.9 0 368.7z"/>
		<path id="&lt;Path&gt;" class="s1" d="m461.8 402.6c-1.7-1.4-4.3-2.2-6.4-1.9-7 1.2-23.2 5.6-32.8 22.6-11.2 20 2.8 35.3 5.7 38.2-4.3 5.2-7.6 8.6-9 9.9q-6.6-4.2-13.9-9.1c-7.8-5.2-16-11-24.7-17.1q-3.2-2.3-6.5-4.7-1.6-1.2-3.3-2.4-1.6-1.3-3.3-2.5-3.3-2.5-6.7-5-3.2-2.5-6.5-5c2.4-2 7.1-6.1 12.8-11.5 4.9 0.6 30.8 2.8 42.6-15 10-15.2 2-26.8-2.2-31.3-1.3-1.4-3.6-2.3-5.5-2.1-6.6 0.3-22.1 2.7-34 15.9-14 15.6-4.1 29.4-2 32-5.6 5.3-10.2 9.2-12.6 11.3-4.3-3.3-8.5-6.7-12.8-10.1-2.3-1.8-4.5-3.6-6.8-5.5-2.2-1.8-4.5-3.7-6.7-5.6-7.3-6.2-14.6-12.5-21.6-18.9 1.2-0.7 3.3-2 6-3.8 2.9-1.9 6.6-4.4 10.7-7.3 4 0.8 28.4 4.6 42.1-10.6 11.5-12.6 5.6-23.2 2.2-27.5-1-1.3-3-2.2-4.8-2.2-6.2-0.1-21.1 1.1-34 11.9-15 12.6-8.3 25.1-6.5 27.8-7.7 5.4-13.8 9.3-16.5 11q-1.9-1.8-3.7-3.5c-11.7-10.9-22.8-22-32.7-32.9 1.8-0.8 7.2-3.5 14-7.9 1.5-1 3.1-2.1 4.7-3.3 3.9 0.5 23.8 2.6 33.6-10.8 8.3-11.4 2.5-20.3-0.7-23.9-0.9-1-2.6-1.7-4.2-1.7-5.1 0.2-17.2 1.8-26.9 11.7-11.2 11.3-4.6 21.8-2.8 24.1-8.7 6.3-16.1 9.9-18.5 11-4.1-4.6-8.2-9.1-11.9-13.6q-4-4.7-7.6-9.3 0.1 0 0.1-0.1c0-0.2-0.2-0.4-0.6-0.5q-1.2-1.6-2.4-3.2c0.9-1.4 5-7.7 10-15.5 4.1 0.1 22.7-0.2 28.2-15 4.8-12.8-2.9-21.5-6.7-24.8-1.1-1-2.9-1.6-4.3-1.3-4.8 0.7-15.6 3.7-22.1 15.1-7.6 13.3 1.6 23.5 3.7 25.6-4.5 7-8.3 12.8-9.6 14.9-7.9-10.3-14.4-20-19.7-28.8q-1.5-2.4-2.9-4.6c-0.9-1.5-1.6-3-2.5-4.5q-0.3-0.6-0.6-1.1c1.9-1.2 8.8-6.4 2.7-19.5-5.4-11.6-14.3-17.9-18.1-20.2-1.2-0.6-2.6-0.8-3.6-0.4-3.1 1.4-9.3 5.7-5.3 17.9 4.7 14.2 20.3 21 23.3 22.2q0.3 0.6 0.6 1.1c0.8 1.5 1.5 3 2.4 4.5q1.4 2.3 2.8 4.7c5.7 9.7 12.9 20.7 21.8 32.3-5-1.2-17.2-4.1-31.2-7.4-1.8-2.1-11.3-11.6-35.1-16.8-20.6-4.6-31.5-2.4-35.5-1.1-1.1 0.3-1.4 1.3-0.7 2.3 2.6 3.5 10.5 11.5 32.1 17.6 25 6.9 36.7 0.3 39.1-1.3 14.8 3.5 27.6 6.6 32 7.6q3.7 4.9 7.8 9.9c4.6 5.6 9.5 11.2 14.6 17-3.2 0.2-12.2 0.9-24.6 1.3-2.5-1.8-16-10.6-40.6-11.1-21-0.5-29.7 4.5-32.6 6.8-0.9 0.7-0.6 1.9 0.6 2.9 4.1 3.3 15.6 10.6 38.2 12.5 26.3 2.2 33.4-8 34.7-10.3 12.7-0.4 21.9-1.1 25-1.4 9.1 10 19 20.1 29.5 30.1q3.4 3.3 6.9 6.5c-2.9 0.4-11.9 1.7-24.3 3.2-3.3-2-20.1-10.6-46.2-8.4-22.4 1.9-30.3 8.7-32.8 11.9-0.7 0.9-0.2 2.2 1.4 3.2 5.3 3.5 19.5 10.8 44.1 10.4 29-0.5 33.5-13.8 34.1-16.4 12.7-1.4 21.8-2.7 24.5-3.2 6 5.5 12.1 10.9 18.2 16.2 2.2 1.9 4.5 3.8 6.7 5.6 2.2 1.9 4.4 3.8 6.7 5.6 4.5 3.7 8.9 7.3 13.4 10.8q0.9 0.7 1.7 1.3c-2.1 0.8-7.9 2.8-17.2 5.4-4-1.9-24.9-10.5-53-4.6-24 5-30.8 14.3-32.6 18.4-0.6 1.2 0.4 2.8 2.4 3.9 6.8 3.5 24.4 10.7 51.2 7.2 32.1-4.1 32.9-21.3 32.8-24.2 9.4-2.6 15.3-4.7 17.3-5.4q2.1 1.6 4.1 3.2 3.4 2.6 6.7 5.1 1.6 1.3 3.2 2.5 1.7 1.2 3.3 2.4 3.3 2.5 6.5 4.8c8.6 6.3 16.9 12.1 24.7 17.4q7.8 5.4 14.9 10c-2 0.8-8 3.2-17.3 6.2-3.4-1.5-27.2-11.5-58.6-4-25.9 6.3-32.7 16.9-34.5 21.5-0.5 1.3 0.7 3.1 2.9 4.2 7.6 3.8 27.2 11.4 56.3 6.8 34.2-5.3 34.6-23.9 34.4-27.6 9.7-3.2 16-5.6 17.8-6.4 8.8 5.8 16.5 10.6 22.6 14.3 4.8 3 8.6 5.3 11.3 6.8 2.6 1.5 4 2.4 4 2.4l3-2.7c0 0-1.4-0.8-4-2.3-2.6-1.5-6.4-3.7-11.2-6.5-6.3-3.9-14.4-8.9-23.7-14.9 1.3-1.3 4.8-4.6 9.1-9.9 4.5 0.2 34.1 0.5 42.6-22.5 7.1-19.1-4.4-32-10.2-37z"/>
		<g id="&lt;Group&gt;">
			<g id="&lt;Group&gt;" style="opacity: .7">
				<path id="&lt;Path&gt;" class="s2" d="m401.8 471.1c0 0-17.2 38-70.3 38.6-40.7 0.5-57.7-16.9-63.4-25.1-1.6-2.4-1.4-5.6 0.6-7.7 6.7-7.2 25.6-23.2 63.9-27.2 50-5.2 69.2 21.4 69.2 21.4z"/>
			</g>
			<g id="&lt;Group&gt;" style="opacity: .7">
				<path id="&lt;Path&gt;" class="s3" d="m455.3 447.2c0 0 39.9 12.5 75.7-26.7 27.5-30 25.8-54.2 23.5-63.9-0.7-2.9-3.2-4.9-6.1-4.8-9.9 0.2-34.3 3.6-62.9 29.5-37.2 33.8-30.2 65.9-30.2 65.9z"/>
			</g>
			<g id="&lt;Group&gt;" style="opacity: .7">
				<path id="&lt;Path&gt;" class="s4" d="m424.8 352c0 0 32.9 15.5 68.5-14.1 27.3-22.7 28.7-43.9 27.9-52.6-0.3-2.5-2.2-4.5-4.8-4.8-8.5-1-30.1-0.9-57.8 18.2-36.2 24.8-33.8 53.3-33.8 53.3z"/>
			</g>
			<g id="&lt;Group&gt;" style="opacity: .7">
				<path id="&lt;Path&gt;" class="s5" d="m408.6 274.1c0 0 28.6 16.8 63.4-7 26.7-18.2 29.8-37.3 29.8-45.3 0-2.3-1.6-4.3-3.9-4.7-7.7-1.7-27.2-3.4-54 11.4-35 19.5-35.3 45.6-35.3 45.6z"/>
			</g>
			<g id="&lt;Group&gt;" style="opacity: .7">
				<path id="&lt;Path&gt;" class="s6" d="m401.3 203.6c0 0 25 12.6 53-9.4 21.4-16.9 23-33.2 22.5-39.8-0.1-2-1.6-3.6-3.5-3.9-6.6-0.9-23.1-1.3-44.9 12.7-28.3 18.4-27.1 40.4-27.1 40.4z"/>
			</g>
			<g id="&lt;Group&gt;" style="opacity: .7">
				<path id="&lt;Path&gt;" class="s7" d="m392.4 143c0 0 26.7 8.5 50.9-17.8 18.4-20.1 17.4-36.4 15.8-42.9-0.4-1.9-2.1-3.2-4.1-3.2-6.6 0.1-23 2.4-42.2 19.7-25.1 22.7-20.4 44.2-20.4 44.2z"/>
			</g>
			<g id="&lt;Group&gt;" style="opacity: .7">
				<path id="&lt;Path&gt;" class="s8" d="m368.2 377.7c0 0-16.7 33.9-64.7 32.9-36.8-0.8-51.7-17.1-56.6-24.6-1.5-2.3-1.2-5.2 0.7-7 6.3-6.4 23.8-20.2 58.6-22.7 45.5-3.3 62 21.4 62 21.4z"/>
			</g>
			<g id="&lt;Group&gt;" style="opacity: .7">
				<path id="&lt;Path&gt;" class="s9" d="m341.7 293.9c0 0-18.4 26.5-58.9 19.5-31-5.4-41.5-21-44.7-28-0.9-2.1-0.3-4.5 1.5-5.8 6.1-4.6 22.7-14.1 52.5-11.7 38.8 3 49.6 26 49.6 26z"/>
			</g>
			<g id="&lt;Group&gt;" style="opacity: .7">
				<path id="&lt;Path&gt;" class="s10" d="m333.3 219.6c0 0-19.5 20.7-53.9 9.3-26.3-8.7-33.4-23.6-35.2-30.2-0.6-1.9 0.3-3.9 2-4.8 6-3.2 21.6-9.3 47.2-3.4 33.5 7.7 39.9 29.1 39.9 29.1z"/>
			</g>
			<g id="&lt;Group&gt;" style="opacity: .7">
				<path id="&lt;Path&gt;" class="s11" d="m331.8 151.7c0 0-23.2 12.9-50.6-7.1-20.9-15.2-22.9-30.6-22.7-36.9 0-1.9 1.4-3.5 3.2-3.8 6.2-1.1 21.9-2.1 43 10.5 27.5 16.4 27.1 37.3 27.1 37.3z"/>
			</g>
			<g id="&lt;Group&gt;" style="opacity: .7">
				<path id="&lt;Path&gt;" class="s12" d="m371.2 93.9c0 0-16.6-15.6-7.6-43.2 6.9-21.1 18.9-26.9 24.1-28.4 1.6-0.4 3.2 0.3 3.9 1.7 2.6 4.7 7.5 17.3 2.9 37.8-6.1 26.8-23.3 32.1-23.3 32.1z"/>
			</g>
			<path id="&lt;Path&gt;" class="s13" d="m301.2 481.3c0-0.4 0.3-0.8 0.7-0.8 65-0.3 118.7-13.6 127.2-15.9-2.9-6.2-5.8-13-8.8-20.3-4.5-10.7-9-22.4-13.6-34.9q-1.7-4.7-3.4-9.6-0.9-2.4-1.7-4.8-0.8-2.5-1.7-5-1.6-4.9-3.3-10-0.9-3.2-1.9-6.4c-7.9 1.8-53 11.2-117.6 11-0.4 0-0.7-0.3-0.7-0.7 0-0.5 0.3-0.8 0.7-0.8 64.1 0.2 109-9 117.1-10.9q-0.4-1.2-0.8-2.5c-2.1-6.9-4.1-14.1-6.1-21.3-1.1-3.5-1.9-7.2-2.9-10.9-0.9-3.6-1.9-7.3-2.8-11-2.4-10.3-4.7-20.7-6.7-31.2-8.6 0-62.5-0.3-113.6-7.4-0.4 0-0.7-0.4-0.6-0.8 0-0.4 0.4-0.7 0.8-0.6 50.5 7 103.7 7.3 113.1 7.3q-1.2-6.2-2.3-12.5c-3.3-19.1-5.7-38.3-7.2-57.1-8.8-0.7-53.2-4.7-96.4-18.3-0.4-0.2-0.6-0.6-0.5-1 0.1-0.3 0.6-0.5 0.9-0.4 42.8 13.5 86.7 17.5 95.9 18.2-0.8-10.8-1.4-21.4-1.6-31.8q-0.2-9.3 0-18.3c-9.7-6.2-60.4-38.5-84.7-51.4-0.3-0.2-0.5-0.6-0.3-1 0.2-0.3 0.7-0.5 1-0.3 23.8 12.6 72.7 43.8 84 51 0.4-21.4 2.1-41.5 4.5-59q0.6-4.4 1.1-8.5c0.4-2.7 1-5.4 1.4-8q1.5-7.8 2.7-14.7 1.6-6.9 3-12.9c1-3.9 1.7-7.6 2.7-10.9 3.7-12.9 5.9-20.4 5.9-20.4l0.5 0.2c0 0-2.1 7.4-5.7 20.4-0.9 3.3-1.5 7-2.5 10.9q-1.3 6-2.8 12.9-1.1 6.9-2.5 14.7c-0.4 2.6-0.9 5.3-1.2 8q-0.5 4.2-1.1 8.5c-1.9 15.8-3.3 33.5-3.6 52.5 8.7-7.2 53-44.4 77.4-67 0.3-0.3 0.8-0.3 1 0 0.3 0.3 0.3 0.8 0 1.1-25.5 23.6-72.8 63.1-78.4 67.8q0 3 0 5.9c0.3 0.3 0.4 0.7 0.2 1q-0.1 0.1-0.2 0.2 0 8.5 0.3 17.2c0.2 8.4 0.8 17 1.5 25.7 8-2.6 49.2-16.5 90.5-49.7 0.3-0.3 0.8-0.2 1 0.1 0.3 0.3 0.2 0.8-0.1 1-24.3 19.5-48.5 32.4-66.1 40.3-12.8 5.7-22.1 8.8-25.2 9.7 1.7 20.6 4.6 41.8 8.5 62.7 0.4 2.2 0.8 4.4 1.2 6.7 11.4-4.9 57.5-25.1 100.1-51.3 0.4-0.3 0.8-0.2 1 0.2 0.3 0.3 0.2 0.8-0.2 1-34.1 21-70.4 38.1-89.5 46.6-5 2.3-8.8 3.9-11.1 4.9 2.5 12.4 5.3 24.7 8.3 36.7 1 3.7 2 7.3 2.9 11 1 3.6 1.9 7.2 3 10.7 2.1 6.8 4 13.4 6.1 19.9 13.2-7.4 58.3-33.3 99.7-66.3 0.3-0.3 0.8-0.2 1 0.1 0.3 0.3 0.2 0.7-0.1 1-41.7 33.3-87.2 59.4-100.2 66.6q1.7 5 3.2 9.9 1.8 5.1 3.5 10 0.8 2.4 1.7 4.9 0.9 2.4 1.7 4.8 1.8 4.7 3.5 9.4c4.8 12.3 9.4 23.9 14 34.5q4.3 9.8 8.3 18.5c8.6-5.3 52.5-33.5 98.8-84.1 0.3-0.3 0.7-0.4 1-0.1 0.3 0.3 0.4 0.8 0.1 1-46.6 51-91 79.4-99.3 84.5 5.7 12.2 10.9 22.5 15 30.4 3.2 6 5.7 10.6 7.5 13.7 1.8 3.1 2.7 4.7 2.7 4.7l-6.2 3.7c0 0-1-1.7-2.8-4.9-1.8-3.2-4.3-7.9-7.4-14-3.9-7.7-8.7-17.6-14-29.3-7.7 2-62 15.6-127.8 16-0.4 0-0.7-0.3-0.7-0.7z"/>
		</g>
		<g id="&lt;Group&gt;">
			<path id="&lt;Path&gt;" class="s14" d="m714.9 302.9q0-0.1 0-0.2c3.1-106.8-28.7-138.7-57.8-113.8-12.9 11.1-17.6 28.8-13.3 45.2 1.4 5.3 2.2 10.9 1.5 17.1-1 8-5.1 13.1-10.3 16.4-11 7-18.6 18.4-20.1 31.5q-1.3 10.6-2 22c-8.2 127.3-41 204.2-50.2 234.7-2.8 9.4 8 17 15.9 11.2 21.4-15.9 78.7-64 111.8-146 4.7-11.6 4-24.4-1.2-35.7-2-4.4-3-9.9-2.4-16.9 1.4-16.1 10.1-28.9 19.2-40.9 5.5-7.1 8.6-15.7 8.9-24.6z"/>
			<path id="&lt;Path&gt;" class="s15" d="m664.4 312.5l50.7-20.3q0-0.4 0-0.8l-50.5 20.1c3.5-29.6 5.8-61.1 6.8-94.2l32.5-9q-0.2-0.3-0.3-0.7l-32.1 8.8q0.5-17.3 0.6-35.2-0.4 0.1-0.8 0.2c-0.2 33.9-1.6 64.9-4 93.2l-23.1-18.5q-0.2 0.4-0.3 0.8l23.4 18.7c-3.1 37.4-7.9 70.1-13.5 98.5l-41.9-39.4q-0.1 0.5-0.1 1.1l41.8 39.3c-9.5 48-21.7 83.8-33 109.8q-1 2.3-2.1 4.5l-24.6-37.5q-0.2 0.6-0.3 1.1l24.5 37.3c-22.8 50-46 71-52.3 76.1q0.3 0.3 0.6 0.5c4.6-3.7 17.3-15.2 32.2-38.6l22.6 0.4q0.1-0.2 0.2-0.3 0.2-0.2 0.4-0.5 0.1 0 0.1 0l-22.8-0.4c7.1-11.3 14.7-25.2 22.2-42.2 7.9-18.1 14.9-37.9 21-59.3l48.8-6.9q0.2-0.4 0.4-0.9l-48.9 6.9c6.3-22.1 11.6-45.9 15.9-71.2q3.4-20.1 5.9-41.4z"/>
		</g>
		<path id="&lt;Path&gt;" class="s16" d="m882.8 499c10.3-19.9 13.5-34.8 11.6-44.8q0-0.2-0.1-0.3c-2.2-11.2-10.7-16.4-22.6-16.2q0 0 0 0-0.4 0-0.8 0 0 0 0 0c-4.7 0.2-9.8 1.2-15.3 3-15.1 5-24.3 14-24.6 23-0.1 2.9-0.8 5.9-3.2 9.2q-1.1 1.4-2.6 2.6-0.1 0.1-0.2 0.2c-3 2.5-6.9 4.1-11.2 5.1-12.3 2.9-22.4 8.4-27.4 15.2q-4 5.5-7.8 11.5c-41.6 66.8-93 105.1-109.8 120.6-2.3 2.2-1.9 4.4 0.1 5.8q0 0 0 0 0.2 0.2 0.4 0.4 0 0 0 0c2.5 1.5 6.9 2.1 11.5 0.8 10.5-2.9 28.7-8.5 50.3-17.2q0.1-0.1 0.3-0.1 0.2-0.1 0.5-0.2 0.1 0 0.1-0.1c28.6-11.5 63-28.5 93-51.7q0.6-0.4 1.2-0.9 0.3-0.2 0.6-0.4h-0.1c6.2-5.5 8.4-11.8 6.7-17.6-0.7-2.5-0.2-5.5 2.3-9.1 5.6-8.4 17.1-14.6 29-20.3 7-3.4 12.2-7.7 14.9-12.4q0 0 0-0.1 1.6-2.8 3-5.5 0.1-0.2 0.2-0.5z"/>
		<g id="&lt;Group&gt;">
			<path id="&lt;Path&gt;" class="s17" d="m867.9 317.3q0 0 0-0.1c21.6-136.7-14-182.9-55.4-155.7-18.4 12.1-27.4 34-24.6 55.8 1 7.1 1.1 14.5-0.9 22.3-2.6 10-8.6 15.9-15.8 19.3-15.4 7.2-27 20.6-31.1 37.1q-3.4 13.4-6.2 28c-31.5 162.1-86.2 255.5-103 293.2-5.2 11.6 7.4 23.1 18.5 16.9 30.1-16.9 111.6-69.2 167.6-169.1 7.9-14 9.2-30.7 4.4-46-1.9-5.9-2.3-13.2-0.3-22.1 4.4-20.4 17.6-35.4 31.4-49.4 8.1-8.2 13.6-18.7 15.4-30.2z"/>
			<path id="&lt;Path&gt;" class="s18" d="m801.6 321.4l68.3-17.6q0.1-0.6 0.1-1.2l-68.1 17.6c9.4-37.5 17.5-77.5 24.3-119.9l43.1-6.1q-0.1-0.6-0.2-1.1l-42.7 6.1q3.5-22.2 6.6-45.1-0.5 0-1.1 0.1c-5.8 43.5-12.7 83.1-20.4 119.1l-26.7-27.6q-0.3 0.5-0.5 1l27 27.8c-10.2 47.5-21.6 88.7-33.5 124.3l-47.4-57.5q-0.2 0.7-0.3 1.3l47.3 57.4c-20.2 60.1-41.7 104.1-60.6 135.6q-1.7 2.8-3.3 5.5l-25.5-52.2q-0.3 0.6-0.5 1.3l25.3 51.9c-37.5 60.5-70.8 83.6-79.8 89.2q0.4 0.4 0.7 0.8c6.6-4.1 24.8-16.7 47.8-44.4l28.9 4.2q0.1-0.1 0.3-0.3 0.3-0.2 0.6-0.5 0.1 0 0.2-0.1l-29.2-4.2c10.9-13.3 23-29.9 35.4-50.6 13.1-21.9 25.4-46.2 36.8-72.6l63.8-0.9q0.3-0.5 0.6-1l-64 0.8c11.7-27.4 22.5-57 32.2-88.9q7.7-25.2 14.5-52.2z"/>
		</g>
		<g id="&lt;Group&gt;">
			<g id="&lt;Group&gt;">
				<path id="&lt;Compound Path&gt;" fill-rule="evenodd" class="s19" d="m493.1 736.3c-3.6 0-7-0.8-9.5-2.2l-273-157.6c-2.6-1.5-4-3.6-4-5.9 0-2.8 2-5.5 5.5-7.5l270-155.9c6.4-3.7 16.2-4.1 21.8-0.9l273 157.6c2.6 1.5 4 3.6 4 5.9 0 2.8-2 5.5-5.5 7.5l-270 155.9c-3.5 2-8 3.1-12.3 3.1zm-8.8-3.4c5.2 3 14.4 2.6 20.5-0.9l269.9-155.8c3.1-1.8 4.9-4.1 4.9-6.4 0-1.8-1.2-3.4-3.4-4.7l-273-157.6c-5.2-3-14.4-2.6-20.5 0.9l-269.9 155.8c-3.1 1.8-4.9 4.1-4.9 6.4 0 1.8 1.2 3.5 3.4 4.7l273 157.6z"/>
				<path id="&lt;Path&gt;" class="s20" d="m780.2 546.6h-16.4l-260.2-150.2c-5.5-3.1-14.9-2.7-21.2 0.9l-259.1 149.6h-16v13.1c0 2 1.2 3.9 3.6 5.4l273 157.6c5.4 3.1 14.9 2.7 21.2-0.9l269.9-155.9c3.6-2 5.3-4.6 5.2-7.1z"/>
				<path id="&lt;Path&gt;" class="s21" d="m483.9 709.9l-273-157.6c-5.4-3.2-4.7-8.6 1.5-12.2l270-155.9c6.3-3.6 15.7-4 21.2-0.9l273 157.6c5.4 3.2 4.7 8.6-1.6 12.3l-269.9 155.8c-6.3 3.6-15.8 4-21.2 0.9z"/>
				<path id="&lt;Path&gt;" class="s22" d="m484.6 698.6l-254.1-146.7c-5.1-2.9-4.5-8 1.4-11.4l251.3-145.1c5.8-3.4 14.6-3.7 19.7-0.8l254.1 146.7c5.1 2.9 4.4 8-1.4 11.4l-251.3 145.1c-5.8 3.4-14.7 3.7-19.7 0.8z"/>
				<path id="&lt;Path&gt;" class="s23" d="m775 551.7l-269.9 155.8c-6.3 3.6-15.8 4-21.2 0.9l-273-157.6c-2.1-1.3-3.3-2.9-3.6-4.6-0.3 2.3 0.8 4.5 3.6 6.1l273 157.6c5.4 3.1 14.9 2.7 21.2-0.9l269.9-155.8c3.8-2.2 5.6-5.1 5.2-7.7-0.4 2.2-2.1 4.4-5.2 6.2z"/>
			</g>
			<path id="&lt;Path&gt;" class="s22" d="m496.5 554h259.5l5.4-21.8-257.8-148.9c-5.5-3.1-14.9-2.7-21.2 0.9l-147.7 85.3 129.4 75.7c9.8 5.8 21 8.8 32.4 8.8z"/>
			<g id="&lt;Group&gt;">
				<g id="&lt;Group&gt;">
					<g id="&lt;Group&gt;">
						<g id="&lt;Group&gt;">
							<g id="&lt;Group&gt;">
								<path id="&lt;Path&gt;" class="s24" d="m484.5 161.2l6.2-3.6c0.8-0.4 1.9-0.4 3.1 0.3l266 153.9c2.6 1.5 4.8 5.6 4.8 9.2l-0.3 225.4c0 2-0.7 3.3-1.7 3.9l-6.2 3.6-0.4-22.4-248.2-143.5c-2.7-1.6-4.8-5.7-4.8-9.2l0.3-207.1c-0.4 1.3-0.8 2.3-0.8 2.3-0.2 0.1-18-12.8-18-12.8z"/>
								<path id="&lt;Path&gt;" class="s25" d="m764.5 319.5l-39.2 15.2-8-4.7 43.3-17.6c1.9 1.5 3.4 4.3 3.9 7.1z"/>
								<path id="&lt;Path&gt;" class="s26" d="m487.4 399.7l266 153.9c2.7 1.5 4.8-0.1 4.8-3.7l0.3-225.4c0-3.6-2.1-7.7-4.8-9.3l-266-153.8c-2.7-1.5-4.8 0.1-4.8 3.6l-0.3 225.5c0 3.6 2.1 7.7 4.8 9.2z"/>
								<path id="&lt;Path&gt;" class="s23" d="m753.7 315.2l-266-153.8c-1.6-0.9-3-0.7-3.9 0.4 0.8-0.2 1.7-0.1 2.6 0.5l266 153.8c2.7 1.5 4.8 5.7 4.8 9.2l-0.3 225.5c0 1.4-0.3 2.5-0.9 3.2 1.3-0.3 2.2-1.8 2.2-4.1l0.3-225.4c0-3.6-2.1-7.7-4.8-9.3z"/>
								<path id="&lt;Path&gt;" class="s27" d="m486.6 394.8l267.5 154.7 0.3-226-267.5-154.7z"/>
							</g>
						</g>
					</g>
				</g>
				<path id="&lt;Path&gt;" class="s28" d="m608.7 394c-1.4 0-3-0.4-4.6-1.4l-23.8-13.7c-5.5-3.2-10-11-10-17.4v-6.9c0-5.9-4.2-13.2-9.4-16.2l-23.1-13.3c-2.4-1.4-4.6-1.6-6.2-0.7-1.6 1-2.5 3-2.5 5.7v43.9c0 3.3-1.1 5.7-3.2 6.9-2 1.1-4.7 0.9-7.5-0.7l-27.2-15.7 0.6-1.2 27.3 15.7c2.3 1.4 4.5 1.6 6.2 0.7 1.6-0.9 2.5-3 2.5-5.7v-43.9c0-3.2 1.1-5.7 3.1-6.8 2.1-1.2 4.8-1 7.6 0.6l23.1 13.4c5.5 3.2 10 11 10 17.3v6.9c0 6 4.2 13.3 9.4 16.2l23.7 13.8c2.4 1.3 4.6 1.6 6.2 0.6 1.6-0.9 2.5-2.9 2.5-5.7v-49.9c0-3.2 1.1-5.7 3.2-6.8 2-1.2 4.7-1 7.5 0.6l26.5 15.3c2.3 1.4 4.5 1.6 6.1 0.7 1.7-0.9 2.5-3 2.5-5.7v-25.8c0-3.3 1.2-5.7 3.2-6.9 2.1-1.2 4.7-0.9 7.5 0.7l27.6 15.9c5.5 3.2 10 11 10 17.4 0 5.9 4.2 13.2 9.3 16.2l30.4 17.5-0.7 1.2-30.3-17.6c-5.6-3.2-10.1-11-10.1-17.3 0-6-4.2-13.3-9.3-16.2l-27.5-15.9c-2.4-1.4-4.6-1.6-6.2-0.7-1.6 0.9-2.5 2.9-2.5 5.7v25.8c0 3.2-1.1 5.7-3.2 6.9-2 1.1-4.7 0.9-7.5-0.7l-26.5-15.3c-2.3-1.4-4.5-1.6-6.1-0.7-1.7 1-2.5 3-2.5 5.7v49.9c0 3.3-1.2 5.7-3.2 6.9q-1.3 0.7-2.9 0.7z"/>
			</g>
			<g id="&lt;Group&gt;">
				<path id="&lt;Path&gt;" class="s29" d="m531 521.6c0 0-1.4 4.3-1.3 5.3 0.2 1 3.1 5.1 3.3 5.2 0.2 0.1 2.7 3.3 5.5 4.9 2.8 1.5 3 2.3 3.3 2.3 0.3 0 0.7-0.2 0.7-0.2 0 0 0.4-3-0.8-4.4-1.3-1.4 0.6-3.5 0.6-3.5l-3.2-8.3z"/>
				<path id="&lt;Path&gt;" class="s30" d="m561.5 613.4c0 0-4.9 1.1-9.8 1.3-4.8 0.2-17.9 2.6-17.6 7.3 0.2 4.8 6.9 11.5 15.5 12.6 8.5 1 19.5-1.4 25-1.2 5.6 0.2 9.5-5.3 7.5-10.5-2.1-5.3-20.6-9.5-20.6-9.5z"/>
				<path id="&lt;Path&gt;" class="s30" d="m590.6 600.9c0 0 1.7 2.8 0.8 4.5-0.9 1.8-3.4 6.1-11.1 1.9-7.7-4.2-22.6-10.3-22.6-10.3 0 0-8.6-4.5-8-9.7 0.5-5.3 8.5-4.4 8.5-4.4z"/>
				<path id="&lt;Path&gt;" class="s29" d="m504.8 412.3c0 0-5.1 0-7.3-1-2.2-1-8.7-3.1-9.1-3.3-0.4-0.3-4-0.5-5.7-1.6 0 0-1.8 0.9-0.4 2.4 1.5 1.5 4.2 2 4.2 2l2.6 1.5c0 0-5.2 2.7-5.7 2.9-0.5 0.2-4.8 3.5-5.3 3.7-0.4 0.2-2.4 1.7-1.6 3.1 0 0 0.1 0.3 1 0.5 0 0-2.7 1.3-2.1 2.6 0.7 1.4 2.5 0.8 2.5 0.8 0 0 0.7 2.5 4 0.6 0 0 0.4 3 7.9-0.2 0 0 3-0.8 5.3-0.6 2.2 0.1 8.2-1.4 11.4-3.7 3.2-2.3-1.7-9.7-1.7-9.7z"/>
				<path id="&lt;Path&gt;" class="s31" d="m495.1 425.7c2.2 0.1 8.2-1.4 11.4-3.7 2.2-1.5 0.7-5.4-0.6-7.8-1.5-0.7-2.8-1.3-2.8-1.3 0 0 0.2 7.4 0 8.5-0.1 1.1-6.8 2.4-11.1 3.1-4.3 0.6-9.9 2.3-10 2.3 0.4 0.6 1.8 2.1 7.8-0.5 0 0 3-0.8 5.3-0.6z"/>
				<path id="&lt;Path&gt;" class="s32" d="m563.7 397.9c0 0-10.6 1.8-14.2 3-3.5 1.1-33.8 7.1-44.9 9.8-0.7 0.2-1.2 0.7-1.4 1.5-0.1 0.5-0.2 1.2-0.1 1.8 0.3 1.3 1.4 13.8 7.6 11.8 1.8-0.7 7.2-1.8 11.6-2.4 4.3-0.5 22.8-2 22.8-2l31.4-17.9z"/>
				<path id="&lt;Path&gt;" class="s33" d="m541 525.6c0 0 2.8 34.5 9.7 47.6 7 13.2 8.5 37.2 9.9 41.8 1.4 4.6 5.9 11.2 13.2 12.6 7.3 1.4 8.6-3.4 8.3-6.3-0.3-2.8-2.3-7.5-2.2-10.6 0-3.1 0.8-4.6 0.9-6 0 0 8.4 2.4 9.8-3.8 0 0-0.7-1.9-0.8-2.8 0-0.9 1.3-23.7 1.6-26.5 0.2-2.8-1-17.8-3.1-25.2-2.2-7.4-1.1-23.2-1.1-23.2l-24-3.5z"/>
				<path id="&lt;Path&gt;" class="s30" d="m580 525.7c0 0-0.2 5.4-2.6 9.9 0 0-0.3 18.3-2.4 27.6 0 0 2.7 18.5 4.5 24.3 1.8 5.9 1.3 17.2 1.3 17.2 0 0 1 0.3 2.4 0.4 1.3 0.1 1.9-22.4-0.1-26.4-2-4-3.2-21.7-2.3-27.1 0.9-5.4 0.9-20.8 2.1-23.6 1.1-2.7-1.3-4.2-1.3-4.2z"/>
				<path id="&lt;Path&gt;" class="s30" d="m562.1 398.1c0 0-7.2 5.1-7 13.9l5.3-1c0 0-1.4-9.9 1.7-12.9z"/>
				<path id="&lt;Path&gt;" class="s30" d="m562.3 533.1c16 0.6 24.8-6.2 24.8-6.2 0-2.2 0.1-3.7 0.1-3.7l-24-3.5-22.2 5.9c0 0 0.5 6.8 1.8 15.6 3.9 0.4 7.9-9 7.9-9l11 0.8c0 0-15.4-0.5 0.6 0.1z"/>
				<path id="&lt;Path&gt;" class="s34" d="m544.1 526.1c0 0 34.5 14.1 51.9-12 0.4-0.7 0.7-1.6 0.7-2.6l-0.1-6.1q0-1.2 0.4-2.3c0.6-1.6 0.7-3.3 0.5-4.9-1.2-6.9-4.3-25.8-5-31.1-0.9-6.4 3.2-32.1 9.3-43.2 6-11-8.2-36.3-8.2-36.3 0 0-3.5-5.9-10.7-4 0 0 6.7 4.8 2.9 9.8-3.9 5-15.2 8.8-15.2 8.8 0 0-20.8 10.3-28.1 23.1 0 0-2.6 6.7-2.9 15.2-0.4 8.5 0.3 29-0.1 31.8-0.4 2.8-1.8 22.1-1.7 23 0.1 0.9 6.3 30.8 6.3 30.8z"/>
				<path id="&lt;Path&gt;" class="s33" d="m554.6 529c0 0 21.6-54.2 21-74.1-0.5-19.6-30.8 38.9-30.8 38.9l-0.7 32.3c0 0 6.5 2.4 10.5 2.9z"/>
				<path id="&lt;Path&gt;" class="s32" d="m544.6 464.5c0.8-4.5 1.3-9 1.4-13.5 0.2-7.9 2.7-20.9 17.1-18.4 20.3 3.4 11 31.4 8.7 36.3-2.3 4.9-11.6 26.8-12.1 28.1-0.4 1.2-14.9 28.4-20 34.9-0.4 0.6-1.2 0.7-1.8 0.2-2-1.7-6.5-5.7-7-8.3-0.7-3.3 2.4-15.1 2.4-15.1 0 0 8.3-29.6 9-31 0.5-1 0.9-6 2.3-13.2z"/>
				<path id="&lt;Path&gt;" class="s29" d="m562.4 398.8c0 0-1.5-3.7-5.3-4.2-3.7-0.4-5.9-1.5-6.2-2.9-0.4-1.4-0.4-3-1.2-5.1-0.9-2.1-1.6-7.2-1.6-7.3 0-0.1-2.8-1-3-2.3-0.1-1.3 1.5-5.7 1.3-6.1-0.1-0.3-1.6-3.1-1.4-5.2 0.3-2.2 0.6-5.3 1.8-7.9 1.2-2.6 9.5-18.5 30.2-9.8 20.8 8.7 4.5 26 6.3 37.4 0 0 1.8 2.4-1.7 6.4-3.5 4.1-13.4 4.8-19.2 7z"/>
				<path id="&lt;Path&gt;" class="s31" d="m581.6 391.8c3.5-4 1.7-6.4 1.7-6.4-0.2-1.6-0.1-3.3 0.2-5l-8.3 1.4c0 0-11.9-11-11.1-5.2 0.7 5.8-2.3 6.8-2.3 6.8l2.5 3.2c0.6 0.8 0.2 1.7-0.3 2.6-3.6 5.9-12 3.9-12 3.9 1 0.7 2.8 1.3 5.1 1.5 3.8 0.5 5.3 4.2 5.3 4.2 5.8-2.2 15.7-2.9 19.2-7z"/>
				<g id="&lt;Group&gt;">
					<path id="&lt;Path&gt;" class="s35" d="m546 351.7c0 0-1.5 4.3 0.8 6.1 2.3 1.8 4.4 3.6 4.4 3.6l-0.1 5.4c0 0.8 0.2 1.5 0.6 2.2l2.9 4.6c0.6 0.9 0.9 2 0.9 3l-0.1 2.2c0 0.7 0.5 1.2 1.1 1.3l0.8 0.1c0.7 0.1 1.3-0.4 1.4-1.1l0.4-3.1c0 0 1.6-2.4 5 0.6l3 1.3c0.8 0.4 1.5 1.1 1.8 2 0.8 2.3 2.6 7 3.9 7.8 1.9 1.1 9.1-2.5 10.1-4.1 1-1.6 3.6-12.5 5.2-17.7 1.6-5.1 1.1-18-14.4-21.6-15.4-3.6-25.5 2.8-27.7 7.4z"/>
					<path id="&lt;Path&gt;" class="s36" d="m582.9 383.6c1-1.6 3.6-12.5 5.2-17.7 0 0-6 3.9-13.8 4.9-7.8 1.1-23.1-8-23.1-8l-0.1 4c0 0.8 0.2 1.5 0.6 2.2l2.9 4.6c0.6 0.9 0.9 2 0.9 3l-0.1 2.2c0 0.7 0.5 1.2 1.1 1.3l0.8 0.1c0.7 0.1 1.3-0.4 1.4-1.1l0.4-3.1c0 0 1.6-2.4 5 0.6l4.4 1.9c0 0 2.5 8.1 4.3 9.2 1.9 1.1 9.1-2.5 10.1-4.1z"/>
				</g>
				<path id="&lt;Path&gt;" class="s37" d="m583.2 384.1c0 0 5.9 3.8 2.8 9-3.1 5.1-25 14.1-26.1 15.5 0 0-0.7-7.9 2.2-10.5 0 0 16.7-2.9 19.4-7.1 2.6-4.2 1.7-6.9 1.7-6.9z"/>
				<path id="&lt;Path&gt;" class="s38" d="m583.2 384.1c0 0 0.9 2.7-1.7 6.9-2.1 3.2-12.1 5.6-16.9 6.6 0 0 1.8 1.1 4.6 6.1 6.8-3.3 15-7.6 16.8-10.6 3.1-5.2-2.8-9-2.8-9z"/>
				<path id="&lt;Path&gt;" class="s33" d="m572 437.1c5.3 17.1-9.4 43.1-11.5 50.7-2.2 7.7-24.1 42.9-24.2 42.9 0.6 0.6 1.2 1 1.6 1.4 0.6 0.5 1.4 0.4 1.8-0.2 5.1-6.5 19.6-33.7 20-34.9 0.5-1.3 9.8-23.2 12.1-28.1 1.9-3.9 8.2-22.8 0.2-31.8z"/>
				<path id="&lt;Path&gt;" class="s33" d="m586.9 400.9c0 0-9.8 5.3-14.6 7.7-4.7 2.4-10 5.7-10 5.7l-1.7-1.9-2.3 4.7c0 0-7.5 4.4-11 8-3.6 3.6-6.3 8.4-6.7 9.5 0 0 9.5-11.9 16.8-15.4l2-0.9 1.2-3.7 1.8 1.9c0 0 21.5-12.4 24.5-15.6z"/>
			</g>
			<g id="&lt;Group&gt;">
				<g id="&lt;Group&gt;">
					<path id="&lt;Path&gt;" class="s29" d="m430 402c0 0 3.7 0.6 5-0.1 1.3-0.6 4.8-1.1 8.9 0.3 4 1.5 3.7 1.3 5.3 1.4 1.5 0.2 4.1 0.3 5 0.9 0.8 0.5 2.4 1.5 0.9 3.6-1.4 2.2-7 0.2-7.9 0-0.9-0.2-1.9 1.4-1.4 2.9 0.4 1.4 8.8 10.6 10.1 11.5 1.3 0.9 7 4.7 7.2 6.2 0.2 1.4-0.1 1.7-0.1 1.7 0 0 1.7 1.5 1.1 2.8-0.6 1.4-3.2-0.7-3.6-0.4 0 0 0.4 1.6-0.2 1.8-0.7 0.3-4.3-1.1-4.8-1.5 0 0-0.4 1.1-2.5-0.1-2.1-1.2-10.1-5.8-11.1-6.6-0.9-0.9-4.1-3.8-5.4-4.6-1.3-0.8-3.5-3.4-4.6-4.5-1.1-1-6.1-3.5-8-3.9-1.9-0.4 6.1-11.4 6.1-11.4z"/>
					<path id="&lt;Path&gt;" class="s31" d="m436.4 418.5c-1.8-3.3-8-5.9-8-5.9 0.4-2.8 4.4-10.3 4.4-10.3-1.4-0.1-2.8-0.3-2.8-0.3 0 0-8 11-6.1 11.4 1.9 0.4 6.9 2.9 8 3.9 1.1 1.1 3.3 3.7 4.6 4.5 1.3 0.8 4.5 3.7 5.4 4.6 1 0.8 9 5.4 11.1 6.6 2.1 1.2 2.5 0.1 2.5 0.1 0.5 0.4 4.1 1.8 4.8 1.5 0.6-0.2 0.2-1.8 0.2-1.8 0 0-2.6-1.4-5.3-2.4-2.6-0.9-16.9-8.5-18.8-11.9z"/>
					<path id="&lt;Path&gt;" class="s29" d="m424 389.9c0 0 0.8 4.1 0.5 7.4-0.3 3.4-7-1-6.7-1.6 0.2-0.6 3.2-5.6 3.2-5.6z"/>
					<path id="&lt;Path&gt;" class="s33" d="m394.7 288.7c0 0 3.7-0.2 8.2 7.3 4.4 7.2 12.1 32.9 16.1 42.7q0.6 1.3 0.8 2.7c1.3 7.7 7.5 43.9 7.8 48.2 0 0-4.7 3.2-7.7 3.9l-6.6-2.2-6.6-65.5-10.5-34.7z"/>
					<path id="&lt;Path&gt;" class="s30" d="m373.5 504.5c0 0-1.2 6-0.5 7.2 0.6 1.2 8.5 10.1 9.4 11.3 0.8 1.2 4.9 8.5 12.3 10.3 7.5 1.7 12.6 1.3 13.6-2.2 1-3.5-3.4-9.4-5.4-11.2-2-1.9-10.6-12.1-12.1-13.6-1.6-1.4-3.8-1.7-3.8-1.7l-9.8 1.7z"/>
					<path id="&lt;Path&gt;" class="s30" d="m403.8 486.3c0 0 7.4 2.9 11.3 3.9 3.9 1 13.2 7.9 13.1 11.4-0.1 3.5-4.7 5.9-9.3 5.6-4.7-0.4-10.2-3.3-11.1-4.1-0.9-0.8-4.1-2.6-7.9-3.8-3.8-1.1-9.9-1.7-10.9-3.8-1-2-1.2-6.2-1.2-6.2z"/>
					<path id="&lt;Path&gt;" class="s33" d="m386.9 485c0.1-0.3 0.3-0.9 0.4-1.2 0.3-1.8 0-9.3 0-9.3l-1.6 2.2c0 0 1.1 7.5 3.4 19.3 0.5 3 2.1 6 2.3 7.7 0.7 5.1-2.3 6-2.3 6-6 4.6-11.2 1.8-13.1 0.4-1.8-1.5-2.5-3.8-5.1-12.3-2.5-8.4-4.8-26.2-4.2-30.4 0.5-3.7 1.8-14.1 1.8-21.3-0.1-7.1-5.6-29.8-5.6-29.8l22.6-4.3 15.5-8 11.7 1.7c0 0 1.5-4.9 3.1 10.5 1.5 15.7-8 43.5-8 43.5-2.5 13.8-3.1 29.6-4.5 31.7-1.5 2.2-7.1 7.2-12.3 3.3-1-0.7-2-1.5-2.6-2.2z"/>
					<path id="&lt;Path&gt;" class="s30" d="m385.7 476.7c0 0 7.4-20.2 10.9-39.8 3.5-19.3 9.5-22 12-25.4 0 0 3.7 1.7 5.7 2q0.4 0.1 0.6 0.1c1.7-0.1-8.3 12.3-10.1 15.5-1.8 3.2-12.1 30.5-12.8 34.3-0.7 3.8-1.4 30.1-0.6 31.6 0.9 1.5-2.8-1.1-2.8-1.1 0 0-2.3-5.9-2.9-17.2z"/>
					<path id="&lt;Path&gt;" class="s30" d="m404.9 404.6l-3.9-0.6-15.5 8-22.6 4.3c0 0 5.5 22.7 5.6 29.8 0 7.2-1.3 17.6-1.8 21.3-0.5 4.2 1.7 22 4.2 30.4 1.2 3.7 1.9 6.2 2.6 8 1 4.8 4.6 5.5 4.6 5.5 0 0-8.9-27.4-8.1-43.5 0.8-15.8 3-28.9 2.6-32 0 0 25.8-7.9 30.6-24.5 0.7-2.6 1.3-4.8 1.7-6.7z"/>
					<path id="&lt;Path&gt;" class="s34" d="m360.4 292.2c0 0-1.9 1.6-2.3 3.1-0.3 1.6-2.6 7.2-2.6 7.2 0 0-10.8 14.3-12.7 18.6-1.9 4.4-2.6 7.7-2.6 7.7l28.5 35.1c0 0-10 34.4-7.2 46.9 2.8 12.7 6.5 17.4 11 18.8 4.5 1.4 28.4-8.5 30.1-21 1.6-12.5 1-14 1-14 0 0 11.2 2.9 11.9 0.1 0.6-2.9-1.5-23.4-2-26.3-0.6-2.9-2.3-35.2-2.3-35.2 0 0-6.8-29.9-7.2-31.4-0.4-1.4-4.7-12.6-10.1-13.3-5.5-0.6-12.2 8.1-12.2 8.1z"/>
					<path id="&lt;Path&gt;" class="s37" d="m361.6 291.2c0 0-1.1 0.7-1.3 2-0.3 1.2-1.2 3.6 0.8 6.2 2.1 2.6 18.5 16 25.1 27.2 6.7 11.4 15 24.1 15.7 26.7 0 0 3.1-18 0.3-26.3-2.7-8.2-11.4-25-13.2-26.2-1.9-1.2-13.1-2.3-13.1-2.3z"/>
					<path id="&lt;Path&gt;" class="s38" d="m378.6 309.3c0 0-0.9 1.4-1.2 2.6 0 0-4.7-2.5-6.7-3.4l7.3 5.1c0 0 0.4-2.6 0.8-3 0 0 4.2 3.1 4.8 4.6 0.6 1.4 8.3 20.8 8.3 20.8l4 6.6 1.1-1.6-6.7-18.1c0 0-3.7-5.7-3.8-5.8 0-0.1-2.5-6.2-2.5-6.2z"/>
					<path id="&lt;Path&gt;" class="s30" d="m378.6 309.3c0 0 2.4-4.6 7.1-4.4 0 0 1.4 5.6 1.7 7.9 0 0-3 1.3-4.2 0.2-1.2-1-4.6-3.7-4.6-3.7z"/>
					<path id="&lt;Path&gt;" class="s30" d="m386.7 311.6c0 0 12.1 14.9 16.3 32.8l-0.9 9.3-6.3-11.3c0 0-10.4-26-12.8-30.8-2.4-4.7 3.7 0 3.7 0z"/>
					<path id="&lt;Path&gt;" class="s33" d="m366.7 371.3c-0.8 3.2-1.7 7.1-2.6 11.4 0 0 17.9 23.3 35.3 32.8 1.7-2.2 2.9-4.5 3.2-6.9 0.9-6.6 1.1-10.1 1.1-12l-20.3-15.4z"/>
					<path id="&lt;Path&gt;" class="s33" d="m365.5 337c0 0 5.2 7.1 6.6 7.7 1.3 0.6 12.5 20.2 14.8 23.9 2.2 3.7 8.3 8.9 8.3 8.9l-5.7 0.6-22.3-29.9z"/>
					<path id="&lt;Path&gt;" class="s32" d="m368.7 343.2c-2.3-5.6-5.8-10.6-10.3-14.3-5.1-4.3-11.9-8.5-15.4-4.8-6.3 6.7-3.7 19.2 5.1 30.8 8.8 11.9 22.7 28.7 26 31.5 3.1 2.7 30.1 23 45.5 30.6 1.2 0.6 2.5 0.1 3.2-1 2.1-3.5 6.5-10.9 8.1-13.9 0.3-0.6 0.1-1.4-0.4-1.7-5.7-3.7-33.9-21.8-42.2-27.4-1.3-0.9-2.3-2.1-3.1-3.5-2.4-4.7-8.7-16.5-14.2-22.5-1-1-1.7-2.3-2.3-3.7q0 0 0-0.1z"/>
					<path id="&lt;Path&gt;" class="s33" d="m389.4 294.9l9.9 10-2.6 0.9 3.3 1.8c0 0 7.9 18.7 6.2 39.8 0 0 3.9-16.6-4.6-40.1l-2.6-1.4 1.7-0.5z"/>
					<path id="&lt;Path&gt;" class="s29" d="m361.4 289.5q0.3 0.6 0.3 1.2c-0.1 0.9-0.2 2.4-0.1 3 0.1 0.9 6.3 11.4 18.9 11.5 0 0 1.5-2.3 1.9-2.7 0 0 5.1-0.3 7.2-2.1 2.1-1.9 0.8-5.2 0.8-5.2l0.3-3.9c0.1-0.4 0.3-0.9 0.6-1.2 0.5-0.4 1-1.1 1.2-1.5 0.1-0.5-0.2-1.3-0.5-1.9q-0.2-0.5-0.2-1.1c0.1-1 0.2-3.1-0.5-5.7-0.2-0.8-0.2-1.6 0-2.4 0.3-1.2 0.8-3 0.8-3.7 0.1-1-1.6-3.7-1.7-4.8-0.1-1.1-1.6-4.7-1.6-4.7 0 0-9.4-17.5-24.5-9.9-15.3 7.6-7.3 23.9-5.5 28.6 0 0 1.9 3.7 2.2 4.6 0.3 0.7 0.1 1.1 0.4 1.9z"/>
					<path id="&lt;Path&gt;" class="s35" d="m390.2 266.1c0.1 1.3-0.4 2.5-1.3 3.3-1.8 1.6-5.5 4.3-10.3 4.9-3.4 0.5-5.3 0.7-6.3 0.7-0.7 0-1.2 0.6-1.3 1.3 0 1.3-0.1 3.2-0.3 4.5q-0.1 0.8-0.5 1.5l-1.1 2.3c-0.2 0.5-0.8 0.9-1.4 0.8h-0.3c-0.7 0-1.2-0.6-1.3-1.3v-0.1c-0.3-1.7-1.3-3.3-2.9-4.1-0.8-0.4-1.7-0.5-2.6-0.2-2.7 1.1-1.6 3.6-1.6 3.6 0 0-3.1-3.8-4.6-8.8-1.4-5.1-1.1-14.2 5.5-19 6.6-4.8 15.2-6.7 22.5-1.5 6.1 4.2 7.5 9.4 7.8 12.1z"/>
					<path id="&lt;Path&gt;" class="s31" d="m365.2 287.5c-0.4-0.4 0.1 3.1-3.5 3.2-0.1 0.9-0.2 2.4-0.1 3 0.1 0.9 6.3 11.4 18.9 11.5 0 0 1.5-2.3 1.9-2.7 0 0-11.7-5.7-13.7-8.2-2.1-2.6-3.2-6.4-3.5-6.8z"/>
					<path id="&lt;Path&gt;" class="s38" d="m385.7 304.9c0 0 3.5 0.4 5.1 1.3 0 0 0.4-1.8-0.5-3.8 0 0 1 0.9 1 5 0 0-5-1.7-5.4-1.8z"/>
					<path id="&lt;Path&gt;" class="s33" d="m424.2 413.2c0 0-29.3-16.8-39.2-23.5-9.9-6.7-37.6-35-43.3-45.8 1.5 3.6 3.6 7.4 6.4 11 8.8 11.9 22.7 28.7 26 31.5 3.1 2.7 30.1 23 45.5 30.6 1.2 0.6 2.5 0.1 3.2-1 0.4-0.7 0.9-1.5 1.5-2.4q-0.1-0.4-0.1-0.4z"/>
					<path id="&lt;Path&gt;" class="s33" d="m356.9 303.4l13.3 19 3.5-1.2 0.1 3.6c0 0 16 11.9 28 36.7 0 0-15.8-25.5-28.4-34l-1.2-3.7-2.7 0.7z"/>
					<path id="&lt;Path&gt;" class="s36" d="m355.6 276.9q-0.2-0.1-0.4-0.1c1.6 3.9 3.8 6.5 3.8 6.5 0 0-1.1-2.5 1.6-3.6 0.9-0.3 1.8-0.2 2.6 0.2 1.6 0.8 2.6 2.4 2.9 4.1v0.1c0.1 0.7 0.6 1.3 1.3 1.3h0.3c0.6 0.1 1.2-0.3 1.4-0.8l1.1-2.3q0.4-0.7 0.5-1.5c0.2-1.3 0.3-3.2 0.3-4.5 0 0-8.9 2.9-15.4 0.6z"/>
				</g>
			</g>
			<g id="&lt;Group&gt;">
				<path id="&lt;Path&gt;" class="s39" d="m515.6 252.4l-6.5-3.8v12.6l6.5 3.8z"/>
				<path id="&lt;Path&gt;" class="s40" d="m527.3 282.2l-6.5-3.8v-10.4l6.5 3.8z"/>
				<path id="&lt;Path&gt;" class="s41" d="m539.1 269.3l-6.6-3.8v9.2l6.6 3.8z"/>
				<path id="&lt;Path&gt;" class="s42" d="m550.8 266.7l-6.6-3.8v18.6l6.6 3.8z"/>
				<path id="&lt;Path&gt;" class="s42" d="m562.5 265.2l-6.6-3.7v26.8l6.6 3.8z"/>
				<path id="&lt;Path&gt;" class="s41" d="m574.2 280.2l-6.5-3.8v18.6l6.5 3.8z"/>
				<path id="&lt;Path&gt;" class="s40" d="m585.9 282.1l-6.5-3.7v23.4l6.5 3.8z"/>
				<path id="&lt;Path&gt;" class="s39" d="m597.7 278.8l-6.6-3.8v33.6l6.6 3.8z"/>
			</g>
			<g id="&lt;Group&gt;">
				<path id="&lt;Path&gt;" class="s39" d="m711.7 474.8c1.6 0.9 2.9 0.4 2.9-1.2v-67.2c0-1.6-1.3-3.6-2.8-4.5-1.6-0.9-2.9-0.3-2.9 1.2v67.3c0 1.5 1.3 3.5 2.8 4.4z"/>
				<path id="&lt;Path&gt;" class="s40" d="m701.6 469c1.6 0.9 2.8 0.3 2.8-1.2l0.1-44c0-1.5-1.3-3.6-2.9-4.5-1.5-0.9-2.8-0.3-2.8 1.2v44c0 1.6 1.2 3.6 2.8 4.5z"/>
				<path id="&lt;Path&gt;" class="s41" d="m691.5 463.1c1.5 0.9 2.8 0.4 2.8-1.2v-58.9c0-1.5-1.2-3.5-2.8-4.5-1.6-0.9-2.9-0.3-2.9 1.2v58.9c0 1.6 1.3 3.6 2.9 4.5z"/>
				<path id="&lt;Path&gt;" class="s42" d="m681.3 457.2c1.6 0.9 2.8 0.4 2.8-1.2l0.1-36.5c0-1.6-1.3-3.6-2.9-4.5-1.5-0.9-2.8-0.4-2.8 1.2v36.6c0 1.5 1.2 3.5 2.8 4.4z"/>
				<path id="&lt;Path&gt;" class="s42" d="m671.2 451.4c1.5 0.9 2.8 0.3 2.8-1.2v-40.1c0-1.6-1.2-3.6-2.8-4.5-1.6-0.9-2.9-0.4-2.9 1.2v40.1c0 1.6 1.3 3.6 2.9 4.5z"/>
				<path id="&lt;Path&gt;" class="s41" d="m661 445.5c1.6 0.9 2.9 0.4 2.9-1.2v-26.6c0-1.6-1.3-3.6-2.9-4.5-1.5-0.9-2.8-0.3-2.8 1.2v26.6c0 1.6 1.2 3.6 2.8 4.5z"/>
				<path id="&lt;Path&gt;" class="s40" d="m650.9 439.6c1.5 1 2.8 0.4 2.8-1.2v-32.3c0-1.6-1.2-3.6-2.8-4.5-1.6-0.9-2.9-0.4-2.9 1.2v32.4c0 1.5 1.3 3.5 2.9 4.4z"/>
				<path id="&lt;Path&gt;" class="s39" d="m640.7 433.8c1.6 0.9 2.9 0.4 2.9-1.2v-11.9c0-1.5-1.3-3.5-2.9-4.4-1.5-0.9-2.8-0.4-2.8 1.2v11.8c0 1.6 1.3 3.6 2.8 4.5z"/>
			</g>
		</g>
	</g>
</svg>