<svg version="1.2" xmlns="http://www.w3.org/2000/svg" viewBox="0 0 1000 760" width="1000" height="760">
	<title>5138227-ai</title>
	<style>
		.s0 { fill: #fdeeeb } 
		.s1 { fill: #0088de } 
		.s2 { fill: none;stroke: #0088de;stroke-miterlimit:10;stroke-width: 2 } 
		.s3 { fill: #ff8b2e } 
		.s4 { fill: #fdfefd } 
		.s5 { fill: none;stroke: #212b3b;stroke-miterlimit:10;stroke-width: 4 } 
		.s6 { fill: none;stroke: #212b3b;stroke-miterlimit:10;stroke-width: 2 } 
		.s7 { fill: #212b3b } 
		.s8 { fill: #ffffff } 
		.s9 { fill: #0a4494 } 
		.s10 { fill: #ffd6d0 } 
		.s11 { fill: none;stroke: #cc8f8d;stroke-linecap: round;stroke-miterlimit:10;stroke-width: 2 } 
		.s12 { fill: none;stroke: #ffd6d0;stroke-linecap: round;stroke-miterlimit:10;stroke-width: 4 } 
		.s13 { fill: #f7746f } 
		.s14 { fill: #6b2e40 } 
		.s15 { fill: #fac8bf } 
		.s16 { fill: #eda19f } 
		.s17 { fill: #ff9185 } 
		.s18 { fill: #f25c61 } 
		.s19 { fill: #bf4753 } 
		.s20 { fill: #0387d9 } 
		.s21 { fill: #904b57 } 
		.s22 { fill: #bd7d81 } 
		.s23 { fill: #75c0e0 } 
		.s24 { fill: none;stroke: #904b57;stroke-linecap: round;stroke-miterlimit:10;stroke-width: 4 } 
		.s25 { fill: none;stroke: #b35267;stroke-linecap: round;stroke-miterlimit:10;stroke-width: 4 } 
		.s26 { fill: #363857 } 
		.s27 { fill: #b35267 } 
		.s28 { fill: #ffedef } 
		.s29 { fill: #e6919d } 
		.s30 { fill: none;stroke: #363857;stroke-miterlimit:10;stroke-width: 2 } 
		.s31 { fill: #1b2e34 } 
		.s32 { fill: #12252b } 
		.s33 { fill: #597375 } 
		.s34 { fill: #324b4f } 
		.s35 { fill: none;stroke: #b35267;stroke-linecap: round;stroke-miterlimit:10;stroke-width: 2 } 
		.s36 { fill: none;stroke: #eb6e6a;stroke-linecap: round;stroke-miterlimit:10;stroke-width: 2 } 
	</style>
	<g id="OBJECTS">
		<g id="&lt;Group&gt;">
			<g id="&lt;Group&gt;">
				<path id="&lt;Path&gt;" class="s0" d="m818.2 706.4c63.5-82.9 111.2-180.7 119.5-284.7 8.4-104-26.8-214.3-105.8-282.5-79-68.2-203.4-84.9-290.1-26.8-78.8 52.9-119.3 156.5-207.7 190.9-44.6 17.4-94.6 13.9-140.6 26.8-81.2 22.8-143.8 100.7-148.3 185-4.6 84.2 49.1 168.4 131.6 195.3 204.8-4.5 409.6-9 641.4-4z"/>
				<path id="&lt;Path&gt;" class="s0" d="m453.1 125.9c-20.9 81.7-103.2 143.4-187.5 140.3-44.6-1.6-90.7-21.9-112.9-60.6-22.3-38.7-12.2-95.9 27.2-116.8 33.9-18 76.2-6.1 112.8-17.4 34.6-10.7 62.1-41.5 98.1-44.4 20.3-1.6 41.1 6.7 54.7 21.8 13.6 15 18 36.1 7.6 77.1z"/>
			</g>
			<g id="&lt;Group&gt;">
				<g id="&lt;Group&gt;">
					<path id="&lt;Compound Path&gt;" fill-rule="evenodd" class="s1" d="m269.9 355.5c-2.4 5.3-5.7 10.1-9.6 14.2l10.3 15.6-19.1 12.6-10.3-15.6c-5.3 2-11 3.2-16.8 3.3l-3.7 18.3-22.5-4.6 3.7-18.3c-5.3-2.4-10-5.6-14.1-9.5l-15.6 10.3-12.7-19.1 15.6-10.4c-2-5.2-3.1-10.9-3.2-16.7l-18.4-3.7 4.6-22.5 18.3 3.7c2.4-5.3 5.7-10.1 9.6-14.1l-10.3-15.6 19.1-12.7 10.3 15.6c5.3-2 10.9-3.1 16.8-3.3l3.7-18.3 22.5 4.6-3.7 18.3c5.3 2.4 10 5.6 14.1 9.5l15.6-10.3 12.7 19.2-15.6 10.3c2 5.3 3.1 10.9 3.3 16.7l18.3 3.7-4.6 22.6zm-18.3-15.5c3.1-15.7-7-31-22.7-34.2-15.7-3.2-31 7-34.2 22.7-3.2 15.7 7 31 22.7 34.1 15.7 3.2 31-6.9 34.2-22.6z"/>
					<path id="&lt;Compound Path&gt;" fill-rule="evenodd" class="s2" d="m351.3 430.9c-2.2 3.6-4.9 6.8-8.1 9.4l6.1 12.1-14.8 7.5-6.1-12.1c-4 1-8.2 1.3-12.4 0.9l-4.2 12.9-15.8-5.3 4.2-12.8c-3.6-2.2-6.7-4.9-9.3-8.1l-12.1 6.1-7.5-14.9 12.1-6.1c-1-3.9-1.3-8.1-0.9-12.3l-12.9-4.2 5.2-15.8 12.9 4.2c2.2-3.6 4.9-6.7 8-9.4l-6.1-12 14.9-7.5 6.1 12.1c4-1 8.1-1.4 12.3-1l4.3-12.8 15.8 5.2-4.3 12.9c3.6 2.1 6.8 4.9 9.4 8l12.1-6.1 7.5 14.9-12.1 6.1c1 4 1.3 8.1 0.9 12.3l12.9 4.3-5.2 15.8zm-11.9-12.7c3.6-11-2.4-22.9-13.4-26.6-11-3.6-22.9 2.4-26.5 13.4-3.7 11.1 2.3 22.9 13.3 26.6 11.1 3.6 23-2.4 26.6-13.4z"/>
					<path id="&lt;Compound Path&gt;" fill-rule="evenodd" class="s2" d="m383.7 331.8c-1.1 2.4-2.6 4.7-4.4 6.6l4.9 7.2-8.8 6-4.9-7.2c-2.5 1-5.1 1.5-7.8 1.6l-1.7 8.6-10.5-2 1.6-8.6c-2.4-1.1-4.7-2.6-6.6-4.4l-7.2 4.9-6-8.9 7.2-4.8c-1-2.5-1.5-5.1-1.6-7.8l-8.6-1.7 2-10.5 8.6 1.6c1.1-2.5 2.6-4.7 4.4-6.6l-4.9-7.2 8.9-6.1 4.8 7.3c2.5-1 5.1-1.5 7.8-1.6l1.7-8.6 10.5 2-1.6 8.6c2.5 1.1 4.7 2.6 6.6 4.4l7.2-4.9 6.1 8.8-7.3 4.9c1 2.5 1.5 5.1 1.6 7.8l8.6 1.7-2 10.5zm-8.6-7.1c1.4-7.4-3.4-14.5-10.8-15.9-7.3-1.4-14.4 3.4-15.8 10.8-1.4 7.3 3.4 14.4 10.7 15.8 7.4 1.4 14.4-3.4 15.9-10.7z"/>
				</g>
				<g id="&lt;Group&gt;">
					<path id="&lt;Compound Path&gt;" fill-rule="evenodd" class="s1" d="m935.7 378c-0.9 6-2.8 11.7-5.5 17l14.8 12.6-15.5 18.2-14.8-12.6c-4.8 3.5-10.1 6.3-15.9 8.1l1.6 19.4-23.9 2-1.6-19.5c-6-0.8-11.7-2.7-16.9-5.4l-12.6 14.8-18.3-15.5 12.7-14.9c-3.6-4.7-6.3-10-8.1-15.8l-19.5 1.6-1.9-23.9 19.4-1.6c0.9-6 2.8-11.7 5.5-16.9l-14.8-12.6 15.5-18.3 14.8 12.6c4.8-3.5 10.1-6.2 15.9-8.1l-1.6-19.4 23.9-1.9 1.6 19.4c6 0.9 11.7 2.8 16.9 5.5l12.6-14.9 18.3 15.6-12.7 14.8c3.6 4.7 6.3 10.1 8.1 15.8l19.5-1.5 1.9 23.9zm-22.8-10.2c-1.4-16.7-16-29.1-32.6-27.7-16.7 1.3-29.1 15.9-27.7 32.5 1.3 16.7 15.9 29.1 32.5 27.8 16.7-1.4 29.1-15.9 27.8-32.6z"/>
					<path id="&lt;Compound Path&gt;" fill-rule="evenodd" class="s2" d="m720.4 145.7c-1.1 2.5-2.6 4.7-4.4 6.6l4.9 7.3-8.9 6-4.9-7.2c-2.4 0.9-5.1 1.5-7.8 1.6l-1.6 8.5-10.5-2 1.6-8.6c-2.5-1-4.7-2.5-6.6-4.3l-7.3 4.9-6-8.9 7.2-4.9c-0.9-2.5-1.5-5.1-1.6-7.8l-8.5-1.7 2-10.5 8.6 1.7c1-2.5 2.5-4.8 4.3-6.7l-4.9-7.2 8.9-6 4.9 7.2c2.5-1 5.1-1.5 7.8-1.6l1.6-8.6 10.6 2-1.7 8.6c2.5 1.1 4.7 2.6 6.7 4.4l7.2-4.9 6 8.9-7.2 4.9c0.9 2.4 1.5 5.1 1.6 7.8l8.6 1.6-2.1 10.5zm-8.6-7.1c1.4-7.3-3.4-14.4-10.7-15.8-7.4-1.4-14.5 3.4-15.9 10.7-1.4 7.4 3.4 14.5 10.8 15.9 7.3 1.4 14.4-3.4 15.8-10.8z"/>
				</g>
				<g id="&lt;Group&gt;">
					<g id="&lt;Group&gt;">
						<path id="&lt;Path&gt;" class="s3" d="m336.8 58.9c40.4 0 73.2 32.8 73.2 73.2 0 40.4-32.8 73.2-73.2 73.2-40.4 0-73.2-32.8-73.2-73.2 0-40.4 32.8-73.2 73.2-73.2z"/>
						<path id="&lt;Path&gt;" class="s4" d="m336.8 69.4c34.6 0 62.7 28.1 62.7 62.7 0 34.7-28.1 62.8-62.7 62.8-34.7 0-62.8-28.1-62.8-62.8 0-34.6 28.1-62.7 62.8-62.7z"/>
					</g>
					<g id="&lt;Group&gt;">
						<g id="&lt;Group&gt;">
							<g id="&lt;Group&gt;">
								<path id="&lt;Path&gt;" class="s5" d="m336.8 72.5l-0.1 8.3"/>
								<path id="&lt;Path&gt;" class="s5" d="m336.8 183.4v8.3"/>
							</g>
							<g id="&lt;Group&gt;">
								<path id="&lt;Path&gt;" class="s5" d="m277.2 132.1l8.3 0.1"/>
								<path id="&lt;Path&gt;" class="s5" d="m388 132.1h8.4"/>
							</g>
						</g>
						<g id="&lt;Group&gt;">
							<g id="&lt;Group&gt;">
								<path id="&lt;Path&gt;" class="s6" d="m294.7 90l5.8 5.9"/>
								<path id="&lt;Path&gt;" class="s6" d="m373.1 168.3l5.8 6"/>
							</g>
							<g id="&lt;Group&gt;">
								<path id="&lt;Path&gt;" class="s6" d="m294.6 174.2l6-5.8"/>
								<path id="&lt;Path&gt;" class="s6" d="m373 95.8l5.9-5.8"/>
							</g>
						</g>
						<path id="&lt;Path&gt;" class="s7" d="m336.8 127.1c2.8 0 5 2.2 5 5 0 2.8-2.2 5-5 5-2.8 0-5-2.2-5-5 0-2.8 2.2-5 5-5z"/>
					</g>
				</g>
				<g id="&lt;Group&gt;">
					<g id="&lt;Group&gt;">
						<path id="&lt;Path&gt;" class="s8" d="m702.9 236.1v-34.5c0-15.1 12.2-27.3 27.3-27.3h138.2c15.1 0 27.3 12.2 27.3 27.3v34.5c0 15.1-12.2 27.3-27.3 27.3h-138.2c-15.1-0.1-27.3-12.3-27.3-27.3z"/>
						<path id="&lt;Path&gt;" class="s8" d="m786.9 249.1l-6.2 59.1 55.6-58.1z"/>
					</g>
					<g id="&lt;Group&gt;">
						<path id="&lt;Path&gt;" class="s9" d="m744.3 213c5.6 0 10.2 4.3 10.2 9.7 0 5.3-4.6 9.6-10.2 9.6-5.7 0-10.3-4.3-10.3-9.6 0-5.4 4.6-9.7 10.3-9.7z"/>
						<path id="&lt;Path&gt;" class="s9" d="m800.1 213c5.6 0 10.2 4.3 10.2 9.7 0 5.3-4.6 9.6-10.2 9.6-5.7 0-10.3-4.3-10.3-9.6 0-5.4 4.6-9.7 10.3-9.7z"/>
						<path id="&lt;Path&gt;" class="s9" d="m854.3 213c5.7 0 10.3 4.3 10.3 9.7 0 5.3-4.6 9.6-10.3 9.6-5.6 0-10.2-4.3-10.2-9.6 0-5.4 4.6-9.7 10.2-9.7z"/>
					</g>
				</g>
				<g id="&lt;Group&gt;">
					<path id="&lt;Path&gt;" class="s0" d="m464.8 124.2c0 45.1 36.3 81.7 81 81.7 44.7 0 80.9-36.6 80.9-81.7 0-45.1-36.2-81.6-80.9-81.6-44.7 0-81 36.5-81 81.6z"/>
					<g id="&lt;Group&gt;">
						<path id="&lt;Path&gt;" class="s8" d="m470.2 130.7c0 45.1 36.2 81.7 81 81.7 44.7 0 80.9-36.6 80.9-81.7 0-45.1-36.2-81.7-80.9-81.7-44.8 0-81 36.6-81 81.7z"/>
						<g id="&lt;Group&gt;">
							<path id="&lt;Compound Path&gt;" fill-rule="evenodd" class="s1" d="m529 172.6c-5.6 5.6-14.7 5.5-20.2-0.2-5.6-5.7-5.5-14.8 0.1-20.4 5.6-5.6 14.7-5.5 20.2 0.2 5.6 5.7 5.6 14.9-0.1 20.4zm-3-3l2.7-9.8-7.1-7.3-9.7 2.6-2.7 9.7 7.1 7.3z"/>
							<path id="&lt;Compound Path&gt;" class="s1" d="m597.2 95.1l-11.2 11.2c-1.8 1.7-4.6 1.6-6.3-0.1l-3.5-3.6c-1.7-1.8-1.7-4.6 0.1-6.3l11.2-11.1c-4.9-1.4-10.6-0.1-14.6 3.9-5.9 5.9-6.2 15.2-0.6 20.9 5.6 5.7 14.9 5.6 20.8-0.2 4-4.1 5.4-9.7 4.1-14.7z"/>
							<path id="&lt;Path&gt;" class="s1" d="m530.5 160.9l-9.3-9.5q22.8-25.4 48.4-48l9.3 9.5q-23 25.2-48.4 48z"/>
						</g>
						<path id="&lt;Path&gt;" class="s8" d="m563.3 197.1l29.5 32.8-0.3-55z"/>
					</g>
				</g>
			</g>
			<g id="&lt;Group&gt;">
				<g id="&lt;Group&gt;">
					<g id="&lt;Group&gt;">
						<path id="&lt;Path&gt;" class="s10" d="m718.5 700.1c8.7-46.2 20.7-92.2 40.5-135.9 19.9-43.6 47.9-85 85.5-118.3 14.3-12.5 33.7-24.7 52.3-19.4 18.6 5.3 25.7 25.7 24.1 43.3-2.8 30.8-23.5 58.3-45.1 82.9-45.9 52.2-99.1 98.8-157.3 147.4z"/>
						<g id="&lt;Group&gt;">
							<path id="&lt;Path&gt;" class="s11" d="m900 443.8c-67.7 77.2-127.5 161.2-178 250.1"/>
							<g id="&lt;Group&gt;">
								<path id="&lt;Path&gt;" class="s11" d="m871 434.1c4.3 10.9 7.1 22.4 8.4 34 12.5-2 25.4-1.2 37.5 2.2"/>
								<path id="&lt;Path&gt;" class="s11" d="m815.9 482.2c9.7 11.8 16 26.3 18 41.4 19.1-4 39.2-2.9 57.7 3.3"/>
								<path id="&lt;Path&gt;" class="s11" d="m772.3 552.7c7.5 11.1 12 24.1 12.9 37.4 17.8-3.6 36.2-4.7 54.3-3.4"/>
								<path id="&lt;Path&gt;" class="s11" d="m745.3 618.6c4.2 6.1 7.1 13.1 8.5 20.4 9.5-3.8 19.3-6.7 29.4-8.5"/>
							</g>
						</g>
					</g>
					<g id="&lt;Group&gt;">
						<path id="&lt;Path&gt;" class="s10" d="m705 710.4c42.9-40.5 86.9-81.8 142.9-109.6 14.3-7.1 30-13.4 46.4-13.9 16.5-0.4 33.8 6.5 38.9 19.1 5 12.3-3 26.5-15.2 35.5-12.2 9-27.9 13.8-43.2 18.4-55.5 16.9-111.1 33.7-169.8 50.5z"/>
						<g id="&lt;Group&gt;">
							<path id="&lt;Path&gt;" class="s11" d="m921.3 609.8c-76.2 18.2-147.8 51.1-208.2 95.5"/>
							<path id="&lt;Path&gt;" class="s11" d="m893.3 594.6c0.2 7.8-1.2 15.7-3.9 23.2 8.3 4.3 14.7 11.5 17.4 19.7"/>
							<path id="&lt;Path&gt;" class="s11" d="m848.3 607.7c-0.9 9.1-3 18.1-6.3 26.7 8.1 5.5 14.5 12.9 18.4 21.2"/>
							<path id="&lt;Path&gt;" class="s11" d="m796 634.6c1.3 7 1.2 14.2-0.2 21.2 9 1.7 17.1 6.6 22.2 13.3"/>
							<path id="&lt;Path&gt;" class="s11" d="m755.4 667.4c0.6 2.4 0.1 8-1.7 12 7.8 0.4 15.3 3.4 20.8 8.4"/>
						</g>
					</g>
					<g id="&lt;Group&gt;">
						<path id="&lt;Path&gt;" class="s10" d="m712.1 710.4c38.2-98 73.2-197.9 104.8-299.4 7.3-23.3 14.1-50.8 3.8-71.7-10.8-21.8-36.6-24.5-54.5-11.7-17.8 12.8-29 36.8-37 60.8-35.6 107-23.1 227.9-17.1 322z"/>
						<g id="&lt;Group&gt;">
							<path id="&lt;Path&gt;" class="s11" d="m795.8 335.1c-46.2 86.9-67.7 214.6-81 373"/>
							<g id="&lt;Group&gt;">
								<path id="&lt;Path&gt;" class="s11" d="m733.2 404.1c9.5 9.4 17.2 21.2 23 34.6 15-9.7 31.6-15.7 48.6-17.5"/>
								<path id="&lt;Path&gt;" class="s11" d="m712.3 484.5c10.2 8.7 19.5 19.2 27.4 31.1 12.8-12 27.5-20.9 43-26"/>
								<path id="&lt;Path&gt;" class="s11" d="m711.7 566c5.9 4.4 11.1 10.2 15.3 16.9 8.9-8 18.7-14.4 29.2-18.9"/>
								<path id="&lt;Path&gt;" class="s11" d="m758.8 345.6c9.2 8.3 15.6 21.2 17.1 35 12.5-8.3 27.6-10.8 41.5-6.9"/>
							</g>
						</g>
					</g>
				</g>
				<g id="&lt;Group&gt;">
					<g id="&lt;Group&gt;">
						<g id="&lt;Group&gt;">
							<path id="&lt;Path&gt;" class="s12" d="m457.8 356.6c41.7 86.3 69.9 179 83.4 273.9"/>
							<g id="&lt;Group&gt;">
								<path id="&lt;Path&gt;" class="s10" d="m458.8 360.2c-18.5-4.2-34-17.8-39.8-35.1-1.8-5.2-2.2-12 2.6-15.3 4.7-3.3 11.3-0.8 15.9 2.4 16 11.1 25.7 29.9 21.3 48z"/>
								<path id="&lt;Path&gt;" class="s10" d="m466.7 374c-4.2-17-4-35.1 0.7-52 0.6-2.3 1.4-4.8 2.9-6.8 1.4-2 3.7-3.5 6.2-3.5 2.5 0 4.7 1.5 6.2 3.5 1.4 2.1 2 4.5 2.5 7 1.5 9.2-0.1 18.7-3.4 27.5-3.4 8.7-8.3 16.8-15.1 24.3z"/>
								<path id="&lt;Path&gt;" class="s10" d="m479.7 400.5c-1.1-16.2 2-32.6 8.9-47.3 2.8-6 6.4-12 11.8-16.1 2.8-2.1 6.6-3.7 9.8-2.2 2.5 1.2 3.9 4.1 4 6.8 0.1 2.8-0.8 5.5-1.8 8.1-7.2 19.5-19.5 37-32.7 50.7z"/>
								<path id="&lt;Path&gt;" class="s10" d="m490 425.2c-1.5-19.4 9.3-39.2 26.4-48.3 3.7-2 8.4-3.4 12-1.1 2.8 1.8 3.8 5.5 3.3 8.8-0.5 3.3-2.3 6.3-4.2 9-9.4 13.9-22 25.6-37.5 31.6z"/>
								<path id="&lt;Path&gt;" class="s10" d="m499.3 455.8c1.3-20.8 14.3-40.5 32.9-49.9 3-1.5 6.7-2.7 9.5-0.9 2.7 1.7 3.1 5.5 2.7 8.7-1.1 7.3-5.6 13.6-10.4 19.2-9.3 10.7-20.4 19.7-34.7 22.9z"/>
								<path id="&lt;Path&gt;" class="s10" d="m509.3 481.1c5-19.9 20-37.1 39-44.9 3.1-1.3 6.7-2.3 9.8-0.9 3.1 1.4 4.7 5 4.7 8.4-0.1 3.4-1.6 6.6-3.4 9.4-5.5 8.7-13.8 15.3-22.8 20.3-9.1 4.9-18.8 8.2-27.3 7.7z"/>
								<path id="&lt;Path&gt;" class="s10" d="m468.2 382.6c-9.5-14.7-25.9-24.7-43.3-26.5-2.4-0.2-4.9-0.3-7.1 0.8-4 2.2-4.9 8-2.8 12.1 2.7 5.2 8.8 7.8 14.5 9.4 10.8 3.2 22 4.8 38.7 4.2z"/>
								<path id="&lt;Path&gt;" class="s10" d="m483 410c-8.6-14.8-26.5-23.7-43.5-21.6-4.2 0.5-8.4 1.7-11.5 4.5-3 2.9-4.5 7.7-2.5 11.4 2.3 4.1 7.6 5.1 12.2 5.6 13.8 1.4 27.6 1.8 45.3 0.1z"/>
								<path id="&lt;Path&gt;" class="s10" d="m494.1 441c-11.9-13.7-31-20.9-49-18.4-3 0.4-6 1.1-8.5 2.9-2.4 1.8-4 4.9-3.4 7.9 0.6 2.5 2.8 4.4 5.3 5.4 2.4 0.9 5 1 7.6 1.2 15.5 0.7 31.1 1.5 48 1z"/>
								<path id="&lt;Path&gt;" class="s10" d="m505.6 473.4c-6.1-8.6-14.1-16.2-23.8-20.5-9.8-4.3-21.3-5.1-31-0.6-2.7 1.2-5.6 3.3-6.1 6.3-0.5 2.9 1.6 5.9 4.2 7.3 2.6 1.5 5.7 1.9 8.6 2.2 12.1 1.3 24.2 2.7 48.1 5.3z"/>
								<path id="&lt;Path&gt;" class="s10" d="m513.1 499.3c-10.7-12.8-27.2-20.6-43.9-20.8-4.4-0.1-9.1 0.5-12.7 3.1-3.5 2.6-5.5 7.8-3.2 11.6 2.3 3.8 7.3 4.6 11.7 5 11.2 1 22.4 2 48.1 1.1z"/>
								<path id="&lt;Path&gt;" class="s10" d="m518.3 520.5c-11.6-10.6-28.9-12.4-44.5-10.1-4 0.6-8.3 1.5-11.2 4.4-2.9 2.8-3.7 8.2-0.7 10.8 2.3 2 5.6 1.8 8.6 1.6 14-1.1 28-2.3 47.8-6.7z"/>
								<path id="&lt;Path&gt;" class="s10" d="m525.7 546.1c-5.4-6.5-13.9-10.1-22.4-10.9-8.5-0.7-17.1 1-25.2 3.6-3.2 1-6.4 2.2-8.8 4.5-2.3 2.3-3.6 6-2.2 9 2 4.3 7.8 4.8 12.5 4.4 13.4-1.1 26.6-4.6 46.1-10.6z"/>
								<path id="&lt;Path&gt;" class="s10" d="m531.8 573.4c-15.7-8.6-35.1-12.7-51.8-6.2-4.2 1.6-8.7 4.8-8.4 9.2 0.2 2.8 2.3 5.1 4.8 6.3 2.5 1.2 5.4 1.3 8.2 1.4 14.1 0 27.9-3.8 47.2-10.7z"/>
								<path id="&lt;Path&gt;" class="s10" d="m534.6 597.8c-13-6.4-28.4-7.8-42.4-3.8-3.9 1.2-7.9 2.8-10.5 5.9-2.7 3.1-3.5 8-1.1 11.2 2.5 3.4 7.3 3.8 11.5 3.7 12.2-0.4 24.2-2.7 42.5-17z"/>
								<path id="&lt;Path&gt;" class="s10" d="m518 509c3.5-15.8 15.4-29.5 30.6-35.2 4-1.5 8.3-2.5 12.4-1.6 4.1 0.9 8 4 8.6 8.1 0.6 3.3-0.9 6.6-3.2 9.1-2.2 2.4-5.1 4.1-8 5.6-11.2 6-22.9 10.8-40.4 14z"/>
								<path id="&lt;Path&gt;" class="s10" d="m523.8 539.2c5.7-19.2 21.8-34.9 41.2-40.1 2.4-0.7 5.2-1.1 7.2 0.3 2.9 2.1 2.5 6.5 1.1 9.8-3.5 8.1-11.1 13.7-18.9 17.8-7.7 4.2-16.1 7.4-30.6 12.2z"/>
								<path id="&lt;Path&gt;" class="s10" d="m528.9 561.3c3.2-7.7 9.2-14.2 16.4-18.6 7.2-4.5 15.4-7 23.8-8.1 3-0.5 6.2-0.7 9.2 0.3 2.9 0.9 5.5 3.4 5.9 6.4 0.3 2.5-1 5-2.8 6.8-1.9 1.7-4.2 2.8-6.6 3.7-13.1 5.3-27.3 7.3-45.9 9.5z"/>
								<path id="&lt;Path&gt;" class="s10" d="m534.7 588.1c10.5-16.2 27.6-29.4 46.9-30.2 4.9-0.2 10.8 1.1 12.3 5.8 1 2.9-0.3 6.2-2.5 8.4-2.2 2.2-5.2 3.4-8.1 4.4-16.4 5.4-35.4 4.9-48.6 11.6z"/>
							</g>
						</g>
						<g id="&lt;Group&gt;">
							<path id="&lt;Path&gt;" class="s12" d="m82 634.5c116.7-8.8 235.6 11.6 342.7 58.7"/>
							<g id="&lt;Group&gt;">
								<path id="&lt;Path&gt;" class="s10" d="m101.8 632.6c-14.9-10.4-36.6-9.7-50.8 1.6-2 1.6-3.9 3.4-4.9 5.7-1.1 2.2-1.3 5.1 0.1 7.2 2.1 3.1 6.4 3.5 10 3.3 16.9-0.8 32.8-8 45.6-17.8z"/>
								<path id="&lt;Path&gt;" class="s10" d="m130.8 632.5c-12.7 3-24.1 11.1-30.9 22.2-1.5 2.4-2.8 4.9-3.1 7.7-0.4 2.8 0.4 5.8 2.5 7.7 2.2 1.9 5.4 2.2 8.2 1.4 2.8-0.8 5.2-2.6 7.3-4.6 11.4-10.8 17.2-27.8 16-34.4z"/>
								<path id="&lt;Path&gt;" class="s10" d="m174.9 634.5c-19.4 4.4-35.9 20-41.3 39.1-1.2 3.9-1.4 8.9 2 11.1 3.7 2.4 8.4-0.5 11.6-3.5 13.5-12.7 23.4-28.7 27.7-46.7z"/>
								<path id="&lt;Path&gt;" class="s10" d="m212.7 635.9c-17.8 6.9-31.5 21.6-42.1 37.5-1.9 2.8-3.8 5.9-4.3 9.3-0.5 3.5 0.7 7.4 3.7 9.1 2.6 1.5 6 1 8.6-0.5 2.7-1.5 4.6-3.9 6.5-6.3 10.5-13.4 19-28.2 27.6-49.1z"/>
								<path id="&lt;Path&gt;" class="s10" d="m238.4 639.8c-16.2 5.7-28.6 21-31 38-0.4 2.6-0.5 5.4 0.3 7.9 0.8 2.6 2.6 5 5.2 5.8 3.2 1 6.7-0.7 8.9-3.2 2.2-2.5 3.4-5.8 4.4-9 4.6-13.3 9.2-26.7 12.2-39.5z"/>
								<path id="&lt;Path&gt;" class="s10" d="m261.7 642.6c-5.7 7.1-11.4 14.4-15.2 22.7-3.8 8.3-5.6 17.9-3.1 26.6 0.8 2.6 2.3 5.4 4.9 5.8 2.3 0.4 4.4-1.2 6-2.9 5.9-6.2 9.3-14.3 10.9-22.6 1.6-8.3 1.4-16.8-3.5-29.6z"/>
								<path id="&lt;Path&gt;" class="s10" d="m302.2 650.5c-6.8 2.8-12.2 8.3-16 14.5-3.9 6.2-6.4 13.1-8.6 20.1-0.9 2.8-1.7 5.7-1.5 8.6 0.2 3 1.6 6 4.2 7.3 3.1 1.6 7.1 0.3 9.6-2.2 2.4-2.4 3.7-5.8 4.8-9.1 3.6-11.5 5.2-23.7 7.5-39.2z"/>
								<path id="&lt;Path&gt;" class="s10" d="m117 630.6c-12.7-3.9-23.6-13.3-29.3-25.2-0.8-1.5-1.5-3.2-1.2-4.8 0.4-2.9 3.2-4.8 6.1-5.3 5.3-1 10.7 1.7 14.3 5.8 3.6 4 5.6 9.1 7.2 14.2 1.7 5.2 3 10.4 2.9 15.3z"/>
								<path id="&lt;Path&gt;" class="s10" d="m154.3 633.8c-10.2-6-18.6-15-23.9-25.5-1.2-2.4-2.3-5-2.5-7.6-0.1-2.7 0.7-5.5 2.8-7.2 2.3-1.9 5.6-2.1 8.4-1 2.7 1 5 3.1 7 5.2 7.4 8.2 11.9 18.9 8.2 36.1z"/>
								<path id="&lt;Path&gt;" class="s10" d="m194.3 634.6c-14-8.3-22.7-24.7-21.7-40.9 0.1-2.2 0.6-4.7 2.6-5.7 1.5-0.7 3.3-0.2 4.6 0.8 1.4 1 2.2 2.4 3.1 3.9 6.1 10.7 10.4 22.4 11.4 41.9z"/>
								<path id="&lt;Path&gt;" class="s10" d="m229.8 637.4c-11.4-6.6-18.9-19.4-19.2-32.6-0.1-4.3 0.9-9.3 4.8-11.3 2.7-1.4 6.1-0.8 8.7 0.9 2.6 1.6 4.4 4.2 6 6.8 6.5 11.1 8.6 24.6-0.3 36.2z"/>
								<path id="&lt;Path&gt;" class="s10" d="m258.4 643.7c-5.7-3.1-9.4-9.1-11-15.4-1.6-6.3-1.4-12.8-1-19.3 0.3-3.8 0.6-7.7 2.5-11.1 1.9-3.3 5.8-5.8 9.5-4.9 3.9 1 6.1 5.2 7.3 9 4.3 13.5 3.1 28.6-7.3 41.7z"/>
								<path id="&lt;Path&gt;" class="s10" d="m290.3 648.9c-8.8-13-9.3-31.1-1.3-44.6 1.6-2.6 4-5.4 7.1-5 2.8 0.3 4.6 3 5.8 5.6 6.3 14.5 3.2 32.5-11.6 44z"/>
							</g>
						</g>
					</g>
					<g id="&lt;Group&gt;">
						<g id="&lt;Group&gt;">
							<path id="&lt;Path&gt;" class="s13" d="m575.1 487.7l-10.3-35c0 0-27.6 11.9-36.4 30.2-19.9 41.6-32.4 122.5-40.5 133.8-8 11.2-107.2 24.7-107.2 24.7l10.1 51.1c0 0 121.4-8.7 137.6-23.1 22-19.4 48.5-103.8 48.5-103.8z"/>
							<g id="&lt;Group&gt;">
								<path id="&lt;Path&gt;" class="s14" d="m640.9 277.7c3.4-14.3 18.9-24 33.6-22.8 14.7 1.2 27.6 12 33.5 25.5 5.9 13.5 5.3 29.3 0.6 43.2-3.3 9.5-8.4 19.6-4.7 28.9 2.7 6.9 9.6 11.2 16.4 14.2 6.8 3 14.1 5.4 19.6 10.3 5.6 5 8.6 13.8 4.5 20-5.9 9-22.4 7.3-26.1 17.4-1.9 5.1 0.8 10.8 0.5 16.3-0.4 6.8-5.6 12.7-11.8 15.7-6.2 3-13.3 3.6-20.2 3.8-12.1 0.3-24.8-0.7-35.3-6.8-10.5-6-18.2-18.3-15.7-30.1 2.1-9.7 10.5-18.7 7.6-28.2-2.1-6.9-9.3-10.6-14.5-15.6-10.9-10.5-12.6-28-8.2-42.5 4.4-14.6 14.7-26.7 20.2-49.3z"/>
								<g id="&lt;Group&gt;">
									<g id="&lt;Group&gt;">
										<g id="&lt;Group&gt;">
											<path id="&lt;Path&gt;" class="s15" d="m655.8 427.3c-17.3 26.7-47.9 56.8-58.8 55.3-9-1.2-18.2-13.8-18.2-36.2 1.2-0.5 2.5-1.2 3.7-2.1 2.7-2.1 5-5.1 6.4-8.7 0.4-0.9 0.7-1.9 0.9-2.8 1.4-6.3-0.3-13.5-4.2-17.7q-0.2-0.3-0.5-0.7c14.6-13.2 29.2-22.6 43.8-32 0.5 8.7 2.4 16.8 5.6 23.8q1.1 2.4 2.4 4.6c4.7 7.8 11.4 13.7 18.9 16.5z"/>
											<path id="&lt;Path&gt;" class="s16" d="m634.4 406.1c-10.7 14.9-29.3 38.5-51.9 38.1 2.6-2 5-5.1 6.4-8.6 0.4-0.9 0.7-1.9 0.9-2.8 1.4-6.3-0.4-13.5-4.2-17.7q-0.3-0.4-0.6-0.7c14.6-13.3 29.2-22.7 43.8-32.1 0.6 8.8 2.4 16.9 5.6 23.8z"/>
										</g>
										<path id="&lt;Path&gt;" class="s17" d="m649.5 423.1c0 0-24.7 52.6-54.2 54-16.8 0.8-14-35.5-14-35.5 0 0-28.1 13.2-36.2 23.3-9.3 11.5-20.9 82-19.9 100.4 1.8 33.2 19.3 54.8 19.3 72.9 0 18-13.1 61.3-13.1 61.3l178.5-0.4c0 0-9.4-38.5-11.3-79.2-1.8-40.8 19-131.8 11.5-157.5-5.3-18-60.6-39.3-60.6-39.3z"/>
									</g>
									<g id="&lt;Group&gt;">
										<g id="&lt;Group&gt;">
											<path id="&lt;Path&gt;" class="s18" d="m594.7 477.2c0 0 38.7-14.9 53.3-56.2 0 0 21.1 6.1 22.5 9.6 2.3 5.8-7.7 47.8-20.2 54.1-10.8 5.4-55.6-7.5-55.6-7.5z"/>
											<path id="&lt;Path&gt;" class="s18" d="m594.7 477.1c0 0-12.8-18.2-7.8-39.8 0 0-11.3 3.9-17.4 9.4-8.9 8.1-24.4 39.9-20 43 3 2.2 45.2-12.6 45.2-12.6z"/>
										</g>
										<g id="&lt;Group&gt;">
											<path id="&lt;Path&gt;" class="s19" d="m592.2 490c3 0 5.4 2.4 5.4 5.3 0 3-2.4 5.3-5.4 5.3-2.9 0-5.3-2.3-5.3-5.3 0-2.9 2.4-5.3 5.3-5.3z"/>
											<path id="&lt;Path&gt;" class="s19" d="m588.5 522.8c2.9 0 5.3 2.4 5.3 5.4 0 2.9-2.4 5.3-5.3 5.3-3 0-5.4-2.4-5.4-5.3 0-3 2.4-5.4 5.4-5.4z"/>
										</g>
									</g>
								</g>
								<g id="&lt;Group&gt;">
									<g id="&lt;Group&gt;">
										<g id="&lt;Group&gt;">
											<path id="&lt;Path&gt;" class="s20" d="m525 329.4c12.6-2.2 25.3 10.6 28.4 28.5 3.2 18-4.4 34.3-17 36.5-12.5 2.2-25.2-10.6-28.4-28.5-3.1-18 4.5-34.3 17-36.5z"/>
										</g>
										<g id="&lt;Group&gt;">
											<path id="&lt;Path&gt;" class="s15" d="m659.5 349.6c5.6-44.6-20.1-84.6-57.5-89.4-37.3-4.8-77.7 27.1-77.7 72 0 60.5 24.2 99.3 60.4 92.2 34.7-6.8 69.2-30.2 74.8-74.8z"/>
											<path id="&lt;Path&gt;" class="s16" d="m652.5 343.9c-12.1-2-23.1-9.9-28.9-20.7 1.3 6.9-1.6 14.5-7.3 18.8-2.1 1.6-5 2.8-7.5 1.8-1.9-0.8-3.1-2.7-4-4.6-3.2-6.6-4.1-14.2-2.5-21.4-5.4 12.4-17.1 21.8-30.3 24.4-3.6 0.7-7.8 0.7-10.3-2-2-2.2-2.2-5.7-1.2-8.5 1-2.9 3.1-5.2 5-7.5-12.3 8.7-28 12.5-42.9 10.4 5-20.5 17.4-39.4 35.4-50.5 18-11 41.6-13.2 60.6-4 19 9.2 32.1 30.3 30 51.3"/>
										</g>
										<g id="&lt;Group&gt;">
											<path id="&lt;Path&gt;" class="s21" d="m654.4 370.3c-1.3-7.4-3.6-15.9-6.9-24.8-11.3-8.5-19.9-20.6-26-33.5 0 0.5 0 0.9 0 1.4-0.3 10.3-7.6 29.9-10.8 27.9-5.2-3.3-4.4-39-6.6-58.6 1.5 12-0.1 24.7-5.9 35.3-5.8 10.6-16 19-27.9 21.3-1.5 0.3-3.4 0.4-4.5-0.7-1.3-1.5-0.6-3.8 0.1-5.6 6-14 11.9-28 17.8-42-4.6 10.8-10 21.4-19.1 28.4-10.2 7.9-23.8 11.4-39 11.2-1.3 9.1-1.1 17.3-0.1 24.1-3.9-7.2-6.4-14.9-7.6-22.7-3.1-20 2.4-41.2 14.6-57.2 16.9-22.2 47.1-33.4 74.4-27.7 5.9 0.3 11.6 1.3 17 3 21.9 6.5 39.7 23 47.3 43.7 9.5 25.8 2.7 56.9-16.8 76.5z"/>
											<path id="&lt;Path&gt;" class="s22" d="m623.9 250c-23.4-1.5-47.1 3.3-66.8 16-22.3 14.4-38.1 39.6-39.2 66-3.1-20.1 2.4-41.2 14.6-57.2 16.9-22.2 47.1-33.5 74.4-27.7 5.9 0.3 11.6 1.3 17 2.9z"/>
										</g>
										<g id="&lt;Group&gt;">
											<path id="&lt;Path&gt;" class="s9" d="m645.4 341.4c0 0 4.2-48.1-23.5-70-33.5-26.6-78.5-8-78.5-8 0 0-2.8-6.4 25-15 13.6-4.3 46.5-8.4 69.2 12.6 27.1 25.1 25.4 69.1 25.4 69.1z"/>
											<g id="&lt;Group&gt;">
												<path id="&lt;Path&gt;" class="s20" d="m633.2 357c2.3-18.1 14.5-31.4 27.1-29.7 12.6 1.6 21 17.6 18.6 35.7-2.4 18-14.5 31.3-27.2 29.7-12.6-1.7-20.9-17.7-18.5-35.7z"/>
												<path id="&lt;Path&gt;" class="s23" d="m649.5 359.1c2.1-16.1 10.5-28.3 18.7-27.2 8.2 1.1 13.1 15 11 31.1-2.1 16.1-10.5 28.3-18.7 27.2-8.2-1-13.1-15-11-31.1z"/>
											</g>
										</g>
										<g id="&lt;Group&gt;">
											<path id="&lt;Path&gt;" class="s24" d="m606.3 347.7c-7.5-7.6-18.1-8.2-25-5.2"/>
											<path id="&lt;Path&gt;" class="s24" d="m552.8 343.5c-7.8-5.9-18-3.8-22.3 1.4"/>
											<path id="&lt;Path&gt;" class="s25" d="m559.2 364c-0.2 5.9 0.4 11.8 1.9 17.6"/>
											<path id="&lt;Path&gt;" class="s26" d="m590.3 358.7c2 0 3.5 2.4 3.5 5.3 0 2.9-1.5 5.3-3.5 5.3-1.9 0-3.4-2.4-3.4-5.3 0-2.9 1.5-5.3 3.4-5.3z"/>
											<path id="&lt;Path&gt;" class="s26" d="m541.6 358.7c2 0 3.5 2.4 3.5 5.3 0 2.9-1.5 5.3-3.5 5.3-1.9 0-3.4-2.4-3.4-5.3 0-2.9 1.5-5.3 3.4-5.3z"/>
											<g id="&lt;Group&gt;">
												<path id="&lt;Path&gt;" class="s27" d="m587.2 404.2c-6.5 1.9-11-0.1-14-3.1-4.1-4-5.5-9.6-5.5-9.6l0.8-0.3 25.8-7.6c0 0 0.7 1.4 1.2 3.5q0.4 1.2 0.6 2.6c0.7 5.1-0.2 11.8-8.9 14.5z"/>
												<path id="&lt;Path&gt;" class="s28" d="m595.5 387.1c-6.7 2.6-21.3 6.4-23.3 6.4-1.3 0-2.7-1.2-3.6-2.3l25.8-7.6c0 0 0.6 1.4 1.1 3.5z"/>
												<path id="&lt;Path&gt;" class="s29" d="m587.2 404.2c-6.5 1.9-11-0.1-14-3.1 7.6-8.7 17-11 22.9-11.4 0.7 5.1-0.2 11.8-8.9 14.5z"/>
											</g>
										</g>
									</g>
									<g id="&lt;Group&gt;">
										<path id="&lt;Path&gt;" class="s30" d="m565.2 429.4c0 0-12.3 0.1-23.6-9.6-10.7-9.4-12-21-11.6-25.9"/>
										<path id="&lt;Path&gt;" class="s26" d="m569.4 422.9c5.9 0 10.7 2.9 10.7 6.5 0 3.6-4.8 6.5-10.7 6.5-5.9 0-10.7-2.9-10.7-6.5 0-3.6 4.8-6.5 10.7-6.5z"/>
									</g>
								</g>
							</g>
						</g>
						<g id="&lt;Group&gt;">
							<path id="&lt;Path&gt;" class="s31" d="m71.1 719v12.7l689.3 1.4 152.3-32.8v-12.2z"/>
							<path id="&lt;Path&gt;" class="s8" d="m320 688.3l592.7-0.2-153.4 31.1-688.2-0.2z"/>
						</g>
						<g id="&lt;Group&gt;">
							<g id="&lt;Group&gt;" style="opacity: .9">
								<g id="&lt;Group&gt;">
									<path id="&lt;Path&gt;" class="s32" d="m384.6 691.6c-12.9 1.6-27.3 2.6-42.6 3.1-14.7 0.6-30.1 0.8-45.7 0.8 3.8-12.8 12.1-24.4 23.5-31.2 3.5-2.1 7.4-3.8 11.4-4.9 8.8-2.5 18.4-2.4 27.1 0.8 12.5 4.6 23.9 18.3 26.3 31.4z"/>
									<path id="&lt;Path&gt;" class="s33" d="m342 694.7c-14.7 0.6-30.1 0.8-45.7 0.8 3.8-12.8 12.1-24.4 23.5-31.2 3.5-2.1 7.4-3.8 11.4-4.9 5.1 3.7 8.5 9.5 10.1 15.7 1.7 6.4 1.5 13.1 0.7 19.6z"/>
								</g>
								<path id="&lt;Path&gt;" class="s15" d="m391.8 680c-7.6 3.6-14 4.6-23.5 3.8-3.4 4.4-20.1 18.4-24.4 14.7-3.3-2.9 8.8-14.7 11.2-19.1 1.8-3.3 3.2-6.9 3.3-10.8-4.1-4.9-12.2-9.6-17.5-8.3-8.2 2.1-18.3 14.1-28.5 22.8-1.4 1.2-2.9 2.4-4.6 2.9-1.7 0.5-3.7 0.2-4.8-1.4-2-2.7-0.4-6.8 1.4-9.7 9.4-15.6 21.6-28.9 35.4-38.9 17.3 2.1 29.1 6.4 44.8 13.4 4.2 9.2 7.4 21.4 7.2 30.6z"/>
							</g>
							<g id="&lt;Group&gt;">
								<g id="&lt;Group&gt;">
									<path id="&lt;Path&gt;" class="s31" d="m361.5 690v9.6h273.4l60.4-11.9v-6z"/>
									<path id="&lt;Path&gt;" class="s34" d="m460.2 681.8l235.1-0.1-60.9 8.4-272.9-0.1z"/>
								</g>
								<g id="&lt;Group&gt;">
									<g id="&lt;Group&gt;">
										<path id="&lt;Path&gt;" class="s19" d="m680.3 629.2c0 0-18.8 18.6-0.3 49 0 0 16.2-3.1 17.7-22.2 0.9-12.2-17.4-26.8-17.4-26.8z"/>
										<g id="&lt;Group&gt;">
											<g id="&lt;Group&gt;">
												<path id="&lt;Path&gt;" class="s15" d="m691.4 659.9c-0.6 1.1-8.5 2.2-14.1 2.7-1.5 0.1-7 0-8 0 0.9 6.4-2.5 10.8-6.1 11.7-4.4 1.1-8.9-1.5-11.9-4.2-4.3 3.2-8.4 4.1-12.3 2.1-4-2.1-7.5-8.1-8-13.9-0.8 3.9-1.6 7.3-1 9.3 0.7 2.7 10.3 15.8 3.4 18.1-3.2 1-13.8-10.4-15-15.4-1.5-6.2-1.2-13.6 2.1-23-6.1 7.3-8.2 10.9-8.9 13.9-1.6 7.9-0.3 21.9-5.9 21.4-6.6 0-7.8-19.9-5.1-28.5 1.9-6.1 14.2-25.5 20.9-27.2 6.1-1.5 39.3-0.1 45.6 0.8 3.1 0.5 6.2 0.8 9 1 7.9 0.7 14.1 0.7 14.4 1 3.9 4.1 2.6 26.9 0.9 30.2z"/>
												<path id="&lt;Path&gt;" class="s16" d="m691.4 659.9c-0.6 1.1-8.5 2.2-14.1 2.7 1.3-3.3 2.3-6.7 2.7-10.2 1-8.1-0.3-16.4-3.9-23.6 7.9 0.6 14.1 0.6 14.4 0.9 3.9 4.1 2.6 26.9 0.9 30.2z"/>
											</g>
											<g id="&lt;Group&gt;">
												<path id="&lt;Path&gt;" class="s35" d="m642.9 646.2c0.6 8.9 2.6 14.8 7.5 22.3"/>
												<g id="&lt;Group&gt;">
													<path id="&lt;Path&gt;" class="s35" d="m668.6 662.3c-1.3-0.3-3.2-1.6-4.2-2.5"/>
													<path id="&lt;Path&gt;" class="s35" d="m664.3 656c0.3 2.6-0.1 5.3-1.3 7.7"/>
												</g>
											</g>
										</g>
									</g>
									<g id="&lt;Group&gt;">
										<path id="&lt;Path&gt;" class="s17" d="m728.7 476.6c-5.3-11.9-21.1-23-36-31.2q-0.7 0.4-1.4 0.8c-8.5 5.4-15.5 12.9-22 20.5-0.2 0.3-0.5 0.6-0.8 1 4.1 27 9.3 61.3 11.2 74.1 3.9 26.7 33.5 78.2 33.1 83.6-0.4 5.4-33.1 2.6-33.1 2.6 13.1 18.2 10.1 37.5-0.2 49.7 0 0 84.7 4.9 94.9-8.5 10.2-13.3-38.1-175.1-45.7-192.6z"/>
										<g id="&lt;Group&gt;">
											<path id="&lt;Path&gt;" class="s36" d="m693.2 465.4c-13.3 41.2-11.4 87.1 5.3 127.1"/>
											<path id="&lt;Path&gt;" class="s36" d="m664.1 535.6c5.3 19 15.6 35.4 30.8 48"/>
										</g>
										<path id="&lt;Path&gt;" class="s36" d="m681.6 627.7c4.8 1.1 9.8 1.6 14.7 1.5"/>
										<path id="&lt;Path&gt;" class="s36" d="m704.6 678.7c-9.1 0-14.9-0.3-23.8-0.8"/>
									</g>
								</g>
							</g>
						</g>
						<g id="&lt;Group&gt;">
							<g id="&lt;Group&gt;">
								<path id="&lt;Path&gt;" class="s31" d="m136.5 658l-10.9-249.1h341.5l10.9 249.1z"/>
								<path id="&lt;Path&gt;" class="s34" d="m466.3 658l-10.9-249.1h11.7l10.9 249.1z"/>
							</g>
							<g id="&lt;Group&gt;">
								<g id="&lt;Group&gt;">
									<path id="&lt;Path&gt;" class="s32" d="m234.9 707.4l31.9-133.8h61.9l-31.9 133.8z"/>
									<path id="&lt;Path&gt;" class="s34" d="m292.8 707.4l31.9-133.8h4l-31.9 133.8z"/>
								</g>
								<g id="&lt;Group&gt;">
									<path id="&lt;Path&gt;" class="s32" d="m205.5 693.4h126.3v14h-126.3z"/>
									<path id="&lt;Path&gt;" class="s34" d="m323.6 693.4h8.2v14h-8.2z"/>
								</g>
							</g>
						</g>
					</g>
				</g>
			</g>
		</g>
	</g>
</svg>